<svg width="1440" height="880" viewBox="0 0 1440 880" fill="none" xmlns="http://www.w3.org/2000/svg">
<path d="M32 0V880" stroke="black" stroke-opacity="0.02" stroke-width="2"/>
<path d="M87.04 0V880" stroke="black" stroke-opacity="0.02" stroke-width="2"/>
<path d="M142.08 0V880" stroke="black" stroke-opacity="0.02" stroke-width="2"/>
<path d="M197.12 0V880" stroke="black" stroke-opacity="0.02" stroke-width="2"/>
<path d="M252.16 0V880" stroke="black" stroke-opacity="0.02" stroke-width="2"/>
<path d="M307.2 0V880" stroke="black" stroke-opacity="0.02" stroke-width="2"/>
<path d="M362.24 0V880" stroke="black" stroke-opacity="0.02" stroke-width="2"/>
<path d="M417.28 0V880" stroke="black" stroke-opacity="0.02" stroke-width="2"/>
<path d="M472.32 0V880" stroke="black" stroke-opacity="0.02" stroke-width="2"/>
<path d="M527.36 0V880" stroke="black" stroke-opacity="0.02" stroke-width="2"/>
<path d="M582.4 0V880" stroke="black" stroke-opacity="0.02" stroke-width="2"/>
<path d="M637.44 0V880" stroke="black" stroke-opacity="0.02" stroke-width="2"/>
<path d="M692.48 0V880" stroke="black" stroke-opacity="0.02" stroke-width="2"/>
<path d="M747.52 0V880" stroke="black" stroke-opacity="0.02" stroke-width="2"/>
<path d="M802.56 0V880" stroke="black" stroke-opacity="0.02" stroke-width="2"/>
<path d="M857.6 0V880" stroke="black" stroke-opacity="0.02" stroke-width="2"/>
<path d="M912.64 0V880" stroke="black" stroke-opacity="0.02" stroke-width="2"/>
<path d="M967.68 0V880" stroke="black" stroke-opacity="0.02" stroke-width="2"/>
<path d="M1022.72 0V880" stroke="black" stroke-opacity="0.02" stroke-width="2"/>
<path d="M1077.76 0V880" stroke="black" stroke-opacity="0.02" stroke-width="2"/>
<path d="M1132.8 0V880" stroke="black" stroke-opacity="0.02" stroke-width="2"/>
<path d="M1187.84 0V880" stroke="black" stroke-opacity="0.02" stroke-width="2"/>
<path d="M1242.88 0V880" stroke="black" stroke-opacity="0.02" stroke-width="2"/>
<path d="M1297.92 0V880" stroke="black" stroke-opacity="0.02" stroke-width="2"/>
<path d="M1352.96 0V880" stroke="black" stroke-opacity="0.02" stroke-width="2"/>
<path d="M1408 0V880" stroke="black" stroke-opacity="0.02" stroke-width="2"/>
</svg>
