<svg width="16" height="16" viewBox="0 0 16 16" fill="none" xmlns="http://www.w3.org/2000/svg">
<g clip-path="url(#clip0_78_1261)">
<path d="M14.705 3.48657L9.78901 1.14457C8.70689 0.498195 7.36001 0.486726 6.26701 1.11457L1.2957 3.48657C1.27704 3.49591 1.2577 3.50591 1.2397 3.51657C0.0599504 4.19113 -0.349612 5.69435 0.32495 6.8741C0.553607 7.27404 0.88995 7.60173 1.2957 7.81991L2.66704 8.47326V11.7399C2.66786 13.2006 3.61833 14.4911 5.01304 14.9253C5.98364 15.206 6.99004 15.3435 8.00039 15.3333C9.01058 15.3446 10.017 15.2083 10.9877 14.9286C12.3825 14.4945 13.3329 13.204 13.3337 11.7433V8.47191L14.6671 7.83457V13.3332C14.6671 13.7014 14.9655 13.9999 15.3337 13.9999C15.7019 13.9999 16.0004 13.7014 16.0004 13.3332V5.33323C16.0048 4.55038 15.3867 3.82719 14.705 3.48657ZM12.0004 11.7433C12.0007 12.617 11.4338 13.3898 10.6004 13.6519C9.75517 13.8934 8.87933 14.0106 8.00036 13.9999C7.12139 14.0106 6.24554 13.8934 5.40036 13.6519C4.56689 13.3898 4.00001 12.617 4.00036 11.7433V9.1086L6.2117 10.1619C6.75733 10.4859 7.38048 10.6562 8.01504 10.6546C8.61904 10.6589 9.21289 10.499 9.73304 10.1919L12.0004 9.10857V11.7433ZM14.1337 6.61657L9.1057 9.01657C8.40464 9.42479 7.53567 9.41323 6.8457 8.98657L1.92636 6.64657C1.37801 6.35088 1.1732 5.66666 1.46889 5.11835C1.56889 4.93291 1.71883 4.7792 1.9017 4.67457L6.89836 2.28791C7.59964 1.8806 8.46814 1.89213 9.15836 2.31791L14.0744 4.65991C14.4359 4.86066 14.6621 5.23976 14.667 5.65326C14.6677 6.04494 14.466 6.40919 14.1337 6.61657Z" fill="#838894"/>
</g>
<defs>
<clipPath id="clip0_78_1261">
<rect width="16" height="16" fill="white"/>
</clipPath>
</defs>
</svg>
