<svg width="32" height="32" viewBox="0 0 32 32" fill="none" xmlns="http://www.w3.org/2000/svg">
<g clip-path="url(#clip0_42_5569)">
<path d="M26.7368 23.579V24.8421C26.7368 26.2316 25.6 27.3684 24.2105 27.3684H6.52632C5.12421 27.3684 4 26.2316 4 24.8421V7.15791C4 5.76843 5.12421 4.63159 6.52632 4.63159H24.2105C25.6 4.63159 26.7368 5.76843 26.7368 7.15791V8.42107H15.3684C13.9663 8.42107 12.8421 9.55791 12.8421 10.9474V21.0526C12.8421 22.4421 13.9663 23.579 15.3684 23.579H26.7368ZM15.3684 21.0526H28V10.9474H15.3684V21.0526ZM20.4211 17.8948C19.3726 17.8948 18.5263 17.0484 18.5263 16C18.5263 14.9516 19.3726 14.1053 20.4211 14.1053C21.4695 14.1053 22.3158 14.9516 22.3158 16C22.3158 17.0484 21.4695 17.8948 20.4211 17.8948Z" fill="#344054"/>
</g>
<defs>
<clipPath id="clip0_42_5569">
<rect width="32" height="32" fill="white"/>
</clipPath>
</defs>
</svg>
