<svg width="32" height="24" viewBox="0 0 32 24" fill="none" xmlns="http://www.w3.org/2000/svg">
<path d="M26.1818 6.18171L20.3636 11.9999H24.7273C24.7273 16.8144 20.8145 20.7272 16 20.7272C14.5309 20.7272 13.1345 20.3635 11.9273 19.709L9.80364 21.8326C11.5927 22.9672 13.7164 23.6363 16 23.6363C22.4291 23.6363 27.6364 18.429 27.6364 11.9999H32L26.1818 6.18171ZM7.27273 11.9999C7.27273 7.18534 11.1855 3.27262 16 3.27262C17.4691 3.27262 18.8655 3.63625 20.0727 4.2908L22.1964 2.16716C20.4073 1.03262 18.2836 0.363525 16 0.363525C9.57091 0.363525 4.36364 5.5708 4.36364 11.9999H0L5.81818 17.8181L11.6364 11.9999H7.27273Z" fill="#344054"/>
</svg>
