<svg width="24" height="25" viewBox="0 0 24 25" fill="none" xmlns="http://www.w3.org/2000/svg">
<g clip-path="url(#clip0_42_5719)">
<path d="M13.1842 6.26584C13.1842 6.49472 13.1842 7.24071 13.1842 8.30054H16.8281L16.433 11.5488H13.1842C13.1842 16.5583 13.1842 23.2712 13.1842 23.2712H8.87198C8.87198 23.2712 8.87198 16.6471 8.87198 11.5488H6.625V8.30054H8.87198C8.87198 7.01236 8.87198 6.09637 8.87198 5.84132C8.87198 4.62617 8.78043 4.04961 9.29676 3.10798C9.81335 2.16639 11.2705 0.9218 13.7907 0.951764C16.3116 0.98282 17.3741 1.22533 17.3741 1.22533L16.8281 4.68719C16.8281 4.68719 15.2184 4.26215 14.4283 4.41363C13.6392 4.56515 13.1842 5.05122 13.1842 6.26584Z" fill="#171717"/>
</g>
<defs>
<clipPath id="clip0_42_5719">
<rect width="24" height="24" fill="white" transform="translate(0 0.111206)"/>
</clipPath>
</defs>
</svg>
