<svg width="32" height="32" viewBox="0 0 32 32" fill="none" xmlns="http://www.w3.org/2000/svg">
<rect width="32" height="32" rx="16" fill="white"/>
<path d="M16.0004 25.6801C15.6764 25.6828 15.358 25.5958 15.0804 25.4286L11.6118 23.4001C10.3133 22.6739 9.22954 21.6178 8.47 20.3385C7.71045 19.0592 7.30207 17.6021 7.28613 16.1144V10.5715C7.28629 10.198 7.40082 9.83347 7.61433 9.52699C7.82785 9.22052 8.13009 8.98678 8.48042 8.85721L15.3718 6.32579C15.7777 6.17721 16.2231 6.17721 16.629 6.32579L23.5204 8.85721C23.8707 8.98678 24.173 9.22052 24.3865 9.52699C24.6 9.83347 24.7146 10.198 24.7147 10.5715V16.1144C24.6988 17.6021 24.2904 19.0592 23.5308 20.3385C22.7713 21.6178 21.6875 22.6739 20.389 23.4001L16.9204 25.4286C16.6429 25.5958 16.3244 25.6828 16.0004 25.6801ZM16.0004 7.64579C15.9551 7.63753 15.9086 7.63753 15.8633 7.64579L8.97185 10.1886C8.89422 10.2174 8.82761 10.2698 8.78146 10.3386C8.73531 10.4073 8.71195 10.4888 8.7147 10.5715V16.1144C8.73128 17.3522 9.07451 18.5638 9.70967 19.6264C10.3448 20.689 11.2494 21.565 12.3318 22.1658L15.8004 24.2001C15.8618 24.2336 15.9305 24.2511 16.0004 24.2511C16.0703 24.2511 16.1391 24.2336 16.2004 24.2001L19.669 22.1658C20.7514 21.565 21.656 20.689 22.2912 19.6264C22.9263 18.5638 23.2696 17.3522 23.2861 16.1144V10.5715C23.2865 10.4907 23.262 10.4117 23.216 10.3453C23.17 10.2789 23.1047 10.2282 23.029 10.2001L16.1376 7.66864C16.0936 7.65272 16.0471 7.64497 16.0004 7.64579Z" fill="#171717"/>
<path d="M15.3717 18.7712C15.203 18.7701 15.0398 18.7117 14.9088 18.6055L12.4688 16.5484C12.3233 16.4264 12.2322 16.2516 12.2156 16.0624C12.199 15.8733 12.2582 15.6853 12.3802 15.5398C12.5022 15.3943 12.677 15.3033 12.8662 15.2867C13.0553 15.27 13.2433 15.3292 13.3888 15.4512L15.3031 17.0627L18.5717 13.4627C18.699 13.3217 18.877 13.2371 19.0667 13.2275C19.2564 13.2178 19.4421 13.2839 19.5831 13.4112C19.724 13.5386 19.8086 13.7166 19.8183 13.9063C19.8279 14.096 19.7618 14.2817 19.6345 14.4227L15.9317 18.537C15.8608 18.6141 15.774 18.675 15.6773 18.7155C15.5807 18.7559 15.4764 18.7749 15.3717 18.7712Z" fill="#171717"/>
</svg>
