<svg width="45" height="46" viewBox="0 0 45 46" fill="none" xmlns="http://www.w3.org/2000/svg">
<path d="M23.1992 18.5069C22.7052 17.466 21.6467 16.7427 20.4118 16.7427H16.4424V14.9785H27.0275V16.7427H24.1518C24.5753 17.2543 24.8928 17.8541 25.078 18.5069H27.0275V20.2711H25.2456C25.0251 22.7409 22.9434 24.6815 20.4118 24.6815H19.7679L25.7043 30.8561H23.2609L17.3245 24.6815V22.9173H20.4118C21.9643 22.9173 23.2521 21.7706 23.4638 20.2711H16.4424V18.5069H23.1992Z" fill="white"/>
<path d="M35.7285 14.6174C37.8983 18.1566 38.6113 22.3992 37.7174 26.4532C36.8236 30.5073 34.3926 34.0567 30.9357 36.3553C27.4788 38.6539 23.2652 39.5225 19.1811 38.7784C15.0969 38.0344 11.4604 35.7356 9.03617 32.3656C6.61195 28.9956 5.58893 24.8168 6.18222 20.7081C6.7755 16.5993 8.93888 12.8807 12.2174 10.3341C15.496 7.78754 19.6342 6.61146 23.7621 7.05317C27.8899 7.49488 31.6856 9.51997 34.3511 12.7026L32.0846 14.6007C29.9105 12.0048 26.8144 10.353 23.4475 9.99267C20.0806 9.63238 16.7051 10.5917 14.0309 12.6688C11.3567 14.746 9.59208 17.7792 9.10816 21.1306C8.62423 24.482 9.45868 27.8904 11.436 30.6393C13.4134 33.3881 16.3796 35.2631 19.7109 35.87C23.0422 36.4769 26.4791 35.7684 29.2988 33.8936C32.1185 32.0187 34.1014 29.1235 34.8305 25.8167C35.5596 22.51 34.978 19.0494 33.2081 16.1626L35.7285 14.6174Z" fill="white"/>
<rect x="18.5205" y="30.7617" width="3.06132" height="5.55217" transform="rotate(33.3501 18.5205 30.7617)" fill="white"/>
<path d="M33.0488 8.56396L35.511 10.3831L32.1109 14.0955L30.1027 12.5515L33.0488 8.56396Z" fill="white"/>
<path d="M37.2066 5.73321L35.6155 11.6686L31.5956 8.23865L37.2066 5.73321Z" fill="white"/>
</svg>
