<svg width="24" height="25" viewBox="0 0 24 25" fill="none" xmlns="http://www.w3.org/2000/svg">
<path d="M16.19 2.11121H7.81C4.17 2.11121 2 4.28121 2 7.92121V16.2912C2 19.9412 4.17 22.1112 7.81 22.1112H16.18C19.82 22.1112 21.99 19.9412 21.99 16.3012V7.92121C22 4.28121 19.83 2.11121 16.19 2.11121ZM12 15.9912C9.86 15.9912 8.12 14.2512 8.12 12.1112C8.12 9.97121 9.86 8.2312 12 8.2312C14.14 8.2312 15.88 9.97121 15.88 12.1112C15.88 14.2512 14.14 15.9912 12 15.9912ZM17.92 6.99121C17.87 7.11121 17.8 7.22121 17.71 7.32121C17.61 7.41121 17.5 7.48121 17.38 7.53121C17.26 7.58121 17.13 7.61121 17 7.61121C16.73 7.61121 16.48 7.51121 16.29 7.32121C16.2 7.22121 16.13 7.11121 16.08 6.99121C16.03 6.87121 16 6.74121 16 6.61121C16 6.48121 16.03 6.35121 16.08 6.23121C16.13 6.10121 16.2 6.00121 16.29 5.90121C16.52 5.67121 16.87 5.56121 17.19 5.63121C17.26 5.64121 17.32 5.66121 17.38 5.69121C17.44 5.71121 17.5 5.74121 17.56 5.78121C17.61 5.81121 17.66 5.86121 17.71 5.90121C17.8 6.00121 17.87 6.10121 17.92 6.23121C17.97 6.35121 18 6.48121 18 6.61121C18 6.74121 17.97 6.87121 17.92 6.99121Z" fill="#171717"/>
</svg>
