<svg width="14" height="16" viewBox="0 0 14 16" fill="none" xmlns="http://www.w3.org/2000/svg">
<path d="M10.333 0H3.66634C2.78261 0.00105857 1.93538 0.352588 1.31049 0.97748C0.685596 1.60237 0.334066 2.4496 0.333008 3.33333V13.3333C0.333008 14.0406 0.613959 14.7189 1.11406 15.219C1.61415 15.719 2.29243 16 2.99967 16H10.333C11.2167 15.9989 12.064 15.6474 12.6889 15.0225C13.3138 14.3976 13.6653 13.5504 13.6663 12.6667V3.33333C13.6653 2.4496 13.3138 1.60237 12.6889 0.97748C12.064 0.352588 11.2167 0.00105857 10.333 0V0ZM12.333 3.33333V10.6667H4.33301V1.33333H10.333C10.8634 1.33333 11.3721 1.54405 11.7472 1.91912C12.1223 2.29419 12.333 2.8029 12.333 3.33333ZM2.99967 1.448V10.6667C2.53143 10.6663 2.07141 10.7898 1.66634 11.0247V3.33333C1.6664 2.91979 1.79465 2.51644 2.03343 2.1788C2.27221 1.84116 2.60978 1.58585 2.99967 1.448V1.448ZM10.333 14.6667H2.99967C2.64605 14.6667 2.30691 14.5262 2.05687 14.2761C1.80682 14.0261 1.66634 13.687 1.66634 13.3333C1.66634 12.9797 1.80682 12.6406 2.05687 12.3905C2.30691 12.1405 2.64605 12 2.99967 12H12.333V12.6667C12.333 13.1971 12.1223 13.7058 11.7472 14.0809C11.3721 14.456 10.8634 14.6667 10.333 14.6667Z" fill="#838894"/>
</svg>
