<svg width="384" height="316" viewBox="0 0 384 316" fill="none" xmlns="http://www.w3.org/2000/svg">
<path d="M0.464844 144.498C0.464844 143.564 1.2215 142.808 2.15488 142.808H4.68993V169.003H2.15488C1.2215 169.003 0.464844 168.246 0.464844 167.313V144.498Z" fill="#75706D"/>
<path opacity="0.4" d="M0.464844 144.498C0.464844 143.564 1.2215 142.808 2.15488 142.808H4.68993V169.003H2.15488C1.2215 169.003 0.464844 168.246 0.464844 167.313V144.498Z" fill="url(#paint0_linear_42_5007)"/>
<path opacity="0.4" d="M0.464844 144.498C0.464844 143.564 1.2215 142.808 2.15488 142.808H4.68993V169.003H2.15488C1.2215 169.003 0.464844 168.246 0.464844 167.313V144.498Z" fill="url(#paint1_linear_42_5007)"/>
<path opacity="0.4" d="M0.464844 144.498C0.464844 143.564 1.2215 142.808 2.15488 142.808H4.68993V169.003H2.15488C1.2215 169.003 0.464844 168.246 0.464844 167.313V144.498Z" fill="url(#paint2_linear_42_5007)"/>
<g filter="url(#filter0_f_42_5007)">
<path d="M1.31055 144.075C1.31055 143.842 1.49971 143.652 1.73306 143.652C1.9664 143.652 2.15556 143.842 2.15556 144.075V145.342H1.31055V144.075Z" fill="white"/>
</g>
<g filter="url(#filter1_f_42_5007)">
<path d="M1.31055 145.343H2.15556V166.891C2.15556 167.124 1.9664 167.313 1.73306 167.313C1.49971 167.313 1.31055 167.124 1.31055 166.891V145.343Z" fill="white" fill-opacity="0.8"/>
</g>
<path d="M0.464844 196.044C0.464844 195.11 1.2215 194.354 2.15488 194.354H4.68993V248.435H2.15488C1.2215 248.435 0.464844 247.678 0.464844 246.745V196.044Z" fill="#75706D"/>
<path opacity="0.4" d="M0.464844 196.044C0.464844 195.11 1.2215 194.354 2.15488 194.354H4.68993V248.435H2.15488C1.2215 248.435 0.464844 247.678 0.464844 246.745V196.044Z" fill="url(#paint3_linear_42_5007)"/>
<path opacity="0.4" d="M0.464844 196.044C0.464844 195.11 1.2215 194.354 2.15488 194.354H4.68993V248.435H2.15488C1.2215 248.435 0.464844 247.678 0.464844 246.745V196.044Z" fill="url(#paint4_linear_42_5007)"/>
<path opacity="0.4" d="M0.464844 196.044C0.464844 195.11 1.2215 194.354 2.15488 194.354H4.68993V248.435H2.15488C1.2215 248.435 0.464844 247.678 0.464844 246.745V196.044Z" fill="url(#paint5_linear_42_5007)"/>
<g filter="url(#filter2_f_42_5007)">
<path d="M1.31055 196.466C1.31055 196.233 1.49971 196.043 1.73306 196.043C1.9664 196.043 2.15556 196.233 2.15556 196.466V197.733H1.31055V196.466Z" fill="white"/>
</g>
<g filter="url(#filter3_f_42_5007)">
<path d="M1.31055 197.733H2.15556V246.322C2.15556 246.555 1.9664 246.744 1.73306 246.744C1.49971 246.744 1.31055 246.555 1.31055 246.322V197.733Z" fill="white" fill-opacity="0.8"/>
</g>
<path d="M0.464844 263.645C0.464844 262.712 1.2215 261.955 2.15488 261.955H4.68993V316.036H2.15488C1.2215 316.036 0.464844 315.279 0.464844 314.346V263.645Z" fill="#75706D"/>
<path opacity="0.4" d="M0.464844 263.645C0.464844 262.712 1.2215 261.955 2.15488 261.955H4.68993V316.036H2.15488C1.2215 316.036 0.464844 315.279 0.464844 314.346V263.645Z" fill="url(#paint6_linear_42_5007)"/>
<path opacity="0.4" d="M0.464844 263.645C0.464844 262.712 1.2215 261.955 2.15488 261.955H4.68993V316.036H2.15488C1.2215 316.036 0.464844 315.279 0.464844 314.346V263.645Z" fill="url(#paint7_linear_42_5007)"/>
<path opacity="0.4" d="M0.464844 263.645C0.464844 262.712 1.2215 261.955 2.15488 261.955H4.68993V316.036H2.15488C1.2215 316.036 0.464844 315.279 0.464844 314.346V263.645Z" fill="url(#paint8_linear_42_5007)"/>
<g filter="url(#filter4_f_42_5007)">
<path d="M1.31055 264.068C1.31055 263.834 1.49971 263.645 1.73306 263.645C1.9664 263.645 2.15556 263.834 2.15556 264.068V265.335H1.31055V264.068Z" fill="white"/>
</g>
<g filter="url(#filter5_f_42_5007)">
<path d="M1.31055 265.335H2.15556V313.923C2.15556 314.157 1.9664 314.346 1.73306 314.346C1.49971 314.346 1.31055 314.157 1.31055 313.923V265.335Z" fill="white" fill-opacity="0.8"/>
</g>
<path d="M383.258 214.634C383.258 213.7 382.501 212.944 381.568 212.944H379.033V296.6H381.568C382.501 296.6 383.258 295.844 383.258 294.91V214.634Z" fill="#75706D"/>
<path opacity="0.4" d="M383.258 214.634C383.258 213.7 382.501 212.944 381.568 212.944H379.033V296.6H381.568C382.501 296.6 383.258 295.844 383.258 294.91V214.634Z" fill="url(#paint9_linear_42_5007)"/>
<path opacity="0.4" d="M383.258 214.634C383.258 213.7 382.501 212.944 381.568 212.944H379.033V296.6H381.568C382.501 296.6 383.258 295.844 383.258 294.91V214.634Z" fill="url(#paint10_linear_42_5007)"/>
<path opacity="0.4" d="M383.258 214.634C383.258 213.7 382.501 212.944 381.568 212.944H379.033V296.6H381.568C382.501 296.6 383.258 295.844 383.258 294.91V214.634Z" fill="url(#paint11_linear_42_5007)"/>
<g filter="url(#filter6_f_42_5007)">
<path d="M382.412 215.056C382.412 214.823 382.223 214.634 381.99 214.634C381.756 214.634 381.567 214.823 381.567 215.056V216.324H382.412V215.056Z" fill="white"/>
</g>
<g filter="url(#filter7_f_42_5007)">
<path d="M382.412 216.324H381.567V294.488C381.567 294.722 381.756 294.911 381.99 294.911C382.223 294.911 382.412 294.722 382.412 294.488V216.324Z" fill="white" fill-opacity="0.8"/>
</g>
<g clip-path="url(#clip0_42_5007)">
<rect x="3" width="378" height="779.105" rx="63.3762" fill="#C7C4BF"/>
<g filter="url(#filter8_f_42_5007)">
<rect x="4.38631" y="1.38631" width="375.227" height="776.333" rx="61.9899" stroke="#4D4946" stroke-width="2.77262"/>
</g>
<g filter="url(#filter9_f_42_5007)">
<rect x="3.4621" y="0.462103" width="377.076" height="778.181" rx="62.9141" stroke="#4A4643" stroke-width="0.924205"/>
</g>
<g filter="url(#filter10_f_42_5007)">
<rect x="8.53242" y="5.53242" width="367.503" height="768.041" rx="57.844" stroke="#D9D6D1" stroke-width="0.924205"/>
</g>
<rect x="8.73117" y="5.7302" width="367.107" height="767.645" rx="57.646" stroke="#F3F0EB" stroke-width="0.369682"/>
</g>
<g clip-path="url(#clip1_42_5007)">
<rect x="8.91602" y="5.91504" width="366.91" height="767.09" rx="57.4611" fill="#000100"/>
<g filter="url(#filter11_f_42_5007)">
<rect x="10.7644" y="7.76345" width="363.213" height="763.394" rx="55.6127" stroke="url(#paint12_radial_42_5007)" stroke-width="3.69682"/>
</g>
</g>
<g clip-path="url(#clip2_42_5007)">
<rect x="17.3652" y="14.3652" width="349.837" height="750.375" rx="49.856" fill="#DAE2D3"/>
<g clip-path="url(#clip3_42_5007)">
<rect width="351.182" height="760.427" transform="translate(16.5195 9.76172)" fill="white"/>
<rect x="35.25" y="65.9512" width="41.206" height="41.206" rx="20.603" fill="#F6F7F9"/>
<path fill-rule="evenodd" clip-rule="evenodd" d="M52.3829 87.2164C52.0172 86.8507 52.0172 86.2577 52.3829 85.892L57.6806 80.5944C58.0463 80.2286 58.6392 80.2286 59.005 80.5944C59.3707 80.9601 59.3707 81.553 59.005 81.9188L54.3695 86.5542L59.005 91.1896C59.3707 91.5554 59.3707 92.1483 59.005 92.514C58.6392 92.8798 58.0463 92.8798 57.6806 92.514L52.3829 87.2164Z" fill="#171717"/>
<path d="M159.292 93.3071C158.432 93.3071 157.657 93.161 156.966 92.8688C156.28 92.5766 155.713 92.1608 155.263 91.6214C154.819 91.0763 154.53 90.433 154.395 89.6913L155.946 89.4469C156.142 90.211 156.55 90.8094 157.168 91.2421C157.792 91.6691 158.525 91.8827 159.368 91.8827C159.913 91.8827 160.404 91.7984 160.843 91.6298C161.287 91.4556 161.638 91.2084 161.896 90.8881C162.155 90.5678 162.284 90.1886 162.284 89.7503C162.284 89.4806 162.236 89.2502 162.141 89.0591C162.051 88.8625 161.924 88.6967 161.761 88.5619C161.604 88.4214 161.424 88.3034 161.222 88.2079C161.02 88.1124 160.809 88.0337 160.59 87.9719L157.497 87.0532C157.16 86.9521 156.834 86.8256 156.519 86.6739C156.204 86.5166 155.923 86.3227 155.676 86.0924C155.429 85.8564 155.232 85.5754 155.086 85.2495C154.94 84.918 154.867 84.5275 154.867 84.078C154.867 83.3588 155.052 82.7463 155.423 82.2406C155.8 81.7293 156.308 81.3388 156.949 81.069C157.589 80.7993 158.311 80.6673 159.115 80.6729C159.93 80.6785 160.657 80.8246 161.298 81.1112C161.944 81.3921 162.478 81.7967 162.899 82.3249C163.326 82.8531 163.613 83.4852 163.759 84.2213L162.166 84.4994C162.082 84.0049 161.893 83.5807 161.601 83.2267C161.315 82.8671 160.955 82.5918 160.522 82.4007C160.09 82.2041 159.615 82.1029 159.098 82.0973C158.604 82.0917 158.157 82.1704 157.758 82.3333C157.359 82.4963 157.042 82.7238 156.806 83.016C156.57 83.3026 156.452 83.6341 156.452 84.0105C156.452 84.3814 156.558 84.682 156.772 84.9124C156.985 85.1371 157.247 85.3169 157.556 85.4518C157.87 85.581 158.177 85.6878 158.474 85.7721L160.784 86.4379C161.048 86.511 161.351 86.6121 161.694 86.7413C162.042 86.8706 162.379 87.0532 162.705 87.2892C163.031 87.5196 163.301 87.8286 163.515 88.2163C163.728 88.5984 163.835 89.0816 163.835 89.666C163.835 90.2504 163.717 90.7701 163.481 91.2252C163.25 91.6804 162.927 92.0625 162.512 92.3715C162.096 92.6749 161.612 92.9053 161.062 93.0626C160.511 93.2256 159.921 93.3071 159.292 93.3071ZM170.685 93.0542C170.146 93.161 169.612 93.2031 169.084 93.1806C168.561 93.1638 168.095 93.0598 167.685 92.8688C167.274 92.6721 166.963 92.3687 166.749 91.9585C166.569 91.5989 166.471 91.2365 166.454 90.8712C166.443 90.5004 166.437 90.0818 166.437 89.6154V81.423H167.937V89.548C167.937 89.9188 167.94 90.2363 167.946 90.5004C167.957 90.7645 168.016 90.9921 168.123 91.1831C168.325 91.5427 168.645 91.7534 169.084 91.8152C169.528 91.877 170.061 91.8602 170.685 91.7647V93.0542ZM164.591 85.1905V83.9516H170.685V85.1905H164.591ZM175.121 93.3071C174.441 93.3071 173.87 93.1834 173.41 92.9362C172.955 92.6834 172.609 92.3518 172.373 91.9417C172.143 91.5315 172.027 91.082 172.027 90.5931C172.027 90.1155 172.117 89.7025 172.297 89.3541C172.483 89.0001 172.741 88.708 173.073 88.4776C173.404 88.2416 173.8 88.0562 174.261 87.9213C174.694 87.8033 175.177 87.7022 175.711 87.6179C176.25 87.528 176.795 87.4465 177.346 87.3735C177.896 87.3004 178.411 87.2302 178.888 87.1628L178.349 87.4746C178.366 86.6655 178.203 86.0671 177.86 85.6794C177.523 85.2917 176.938 85.0978 176.107 85.0978C175.556 85.0978 175.073 85.2242 174.657 85.4771C174.247 85.7243 173.958 86.1289 173.789 86.6908L172.365 86.2609C172.584 85.463 173.008 84.8365 173.637 84.3814C174.267 83.9263 175.095 83.6987 176.124 83.6987C176.95 83.6987 177.658 83.8476 178.248 84.1454C178.843 84.4376 179.27 84.8815 179.529 85.4771C179.658 85.758 179.739 86.0643 179.773 86.3958C179.807 86.7217 179.824 87.0644 179.824 87.424V93.0542H178.492V90.8712L178.804 91.0735C178.461 91.8096 177.981 92.3659 177.363 92.7423C176.75 93.1188 176.003 93.3071 175.121 93.3071ZM175.348 92.0512C175.888 92.0512 176.354 91.9557 176.747 91.7647C177.146 91.568 177.467 91.3123 177.708 90.9977C177.95 90.6774 178.107 90.329 178.18 89.9526C178.264 89.6716 178.309 89.3598 178.315 89.017C178.326 88.6686 178.332 88.4017 178.332 88.2163L178.854 88.4439C178.366 88.5113 177.885 88.5759 177.413 88.6377C176.941 88.6995 176.494 88.767 176.073 88.84C175.652 88.9074 175.272 88.9889 174.935 89.0844C174.688 89.1631 174.455 89.2642 174.236 89.3879C174.022 89.5115 173.848 89.6716 173.713 89.8683C173.584 90.0593 173.519 90.2981 173.519 90.5847C173.519 90.8319 173.581 91.0679 173.705 91.2927C173.834 91.5174 174.031 91.7 174.295 91.8405C174.564 91.981 174.916 92.0512 175.348 92.0512ZM187.097 93.0542C186.558 93.161 186.024 93.2031 185.496 93.1806C184.973 93.1638 184.507 93.0598 184.097 92.8688C183.687 92.6721 183.375 92.3687 183.161 91.9585C182.982 91.5989 182.883 91.2365 182.866 90.8712C182.855 90.5004 182.849 90.0818 182.849 89.6154V81.423H184.35V89.548C184.35 89.9188 184.353 90.2363 184.358 90.5004C184.369 90.7645 184.428 90.9921 184.535 91.1831C184.737 91.5427 185.058 91.7534 185.496 91.8152C185.94 91.877 186.474 91.8602 187.097 91.7647V93.0542ZM181.004 85.1905V83.9516H187.097V85.1905H181.004ZM189.114 82.3417V80.7909H190.614V82.3417H189.114ZM189.114 93.0542V83.9516H190.614V93.0542H189.114ZM196.582 93.2986C195.497 93.2986 194.607 93.0626 193.91 92.5906C193.219 92.113 192.795 91.4472 192.637 90.5931L194.171 90.3487C194.295 90.8432 194.579 91.2365 195.023 91.5287C195.467 91.8152 196.017 91.9585 196.675 91.9585C197.298 91.9585 197.787 91.8293 198.141 91.5708C198.495 91.3123 198.672 90.9612 198.672 90.5173C198.672 90.2588 198.613 90.0509 198.495 89.8936C198.377 89.7306 198.133 89.5789 197.762 89.4384C197.397 89.298 196.843 89.1294 196.102 88.9327C195.298 88.7192 194.666 88.4973 194.205 88.2669C193.744 88.0365 193.416 87.7696 193.219 87.4662C193.022 87.1628 192.924 86.7947 192.924 86.3621C192.924 85.8283 193.07 85.3619 193.362 84.963C193.654 84.5584 194.062 84.2465 194.584 84.0274C195.113 83.8083 195.725 83.6987 196.422 83.6987C197.113 83.6987 197.731 83.8083 198.276 84.0274C198.821 84.2465 199.259 84.5584 199.591 84.963C199.928 85.3619 200.127 85.8283 200.189 86.3621L198.655 86.6402C198.582 86.1514 198.346 85.7665 197.947 85.4855C197.554 85.2046 197.045 85.0557 196.422 85.0388C195.832 85.0163 195.351 85.1203 194.981 85.3507C194.615 85.581 194.433 85.8929 194.433 86.2862C194.433 86.5053 194.5 86.6936 194.635 86.8509C194.775 87.0082 195.031 87.1571 195.402 87.2976C195.778 87.4381 196.323 87.5982 197.037 87.778C197.841 87.9803 198.473 88.2023 198.933 88.4439C199.4 88.6799 199.731 88.9608 199.928 89.2867C200.125 89.607 200.223 90.0031 200.223 90.4751C200.223 91.3517 199.9 92.0428 199.254 92.5485C198.608 93.0486 197.717 93.2986 196.582 93.2986ZM207.164 93.0542C206.625 93.161 206.091 93.2031 205.563 93.1806C205.04 93.1638 204.574 93.0598 204.164 92.8688C203.753 92.6721 203.442 92.3687 203.228 91.9585C203.048 91.5989 202.95 91.2365 202.933 90.8712C202.922 90.5004 202.916 90.0818 202.916 89.6154V81.423H204.416V89.548C204.416 89.9188 204.419 90.2363 204.425 90.5004C204.436 90.7645 204.495 90.9921 204.602 91.1831C204.804 91.5427 205.124 91.7534 205.563 91.8152C206.007 91.877 206.54 91.8602 207.164 91.7647V93.0542ZM201.07 85.1905V83.9516H207.164V85.1905H201.07ZM209.181 82.3417V80.7909H210.681V82.3417H209.181ZM209.181 93.0542V83.9516H210.681V93.0542H209.181ZM217.045 93.3071C216.123 93.3071 215.339 93.102 214.693 92.6918C214.053 92.276 213.564 91.7057 213.227 90.9808C212.89 90.256 212.715 89.43 212.704 88.5029C212.715 87.5533 212.892 86.7189 213.235 85.9996C213.584 85.2748 214.081 84.7101 214.727 84.3055C215.373 83.901 216.151 83.6987 217.062 83.6987C218.023 83.6987 218.849 83.9347 219.54 84.4067C220.236 84.8787 220.703 85.5248 220.939 86.3452L219.455 86.7919C219.264 86.2637 218.952 85.8536 218.52 85.5614C218.093 85.2692 217.601 85.1231 217.045 85.1231C216.421 85.1231 215.907 85.2692 215.502 85.5614C215.098 85.8479 214.797 86.2469 214.601 86.7582C214.404 87.2639 214.303 87.8455 214.297 88.5029C214.308 89.5143 214.542 90.3318 214.997 90.9555C215.457 91.5736 216.14 91.8827 217.045 91.8827C217.64 91.8827 218.135 91.7478 218.528 91.4781C218.922 91.2028 219.219 90.8066 219.422 90.2897L220.939 90.6858C220.624 91.5343 220.132 92.1833 219.464 92.6328C218.795 93.0823 217.989 93.3071 217.045 93.3071ZM226.098 93.2986C225.013 93.2986 224.123 93.0626 223.426 92.5906C222.735 92.113 222.311 91.4472 222.153 90.5931L223.687 90.3487C223.811 90.8432 224.095 91.2365 224.538 91.5287C224.982 91.8152 225.533 91.9585 226.19 91.9585C226.814 91.9585 227.303 91.8293 227.657 91.5708C228.011 91.3123 228.188 90.9612 228.188 90.5173C228.188 90.2588 228.129 90.0509 228.011 89.8936C227.893 89.7306 227.649 89.5789 227.278 89.4384C226.912 89.298 226.359 89.1294 225.617 88.9327C224.814 88.7192 224.182 88.4973 223.721 88.2669C223.26 88.0365 222.931 87.7696 222.735 87.4662C222.538 87.1628 222.44 86.7947 222.44 86.3621C222.44 85.8283 222.586 85.3619 222.878 84.963C223.17 84.5584 223.578 84.2465 224.1 84.0274C224.628 83.8083 225.241 83.6987 225.938 83.6987C226.629 83.6987 227.247 83.8083 227.792 84.0274C228.337 84.2465 228.775 84.5584 229.107 84.963C229.444 85.3619 229.643 85.8283 229.705 86.3621L228.171 86.6402C228.098 86.1514 227.862 85.7665 227.463 85.4855C227.07 85.2046 226.561 85.0557 225.938 85.0388C225.348 85.0163 224.867 85.1203 224.496 85.3507C224.131 85.581 223.948 85.8929 223.948 86.2862C223.948 86.5053 224.016 86.6936 224.151 86.8509C224.291 87.0082 224.547 87.1571 224.918 87.2976C225.294 87.4381 225.839 87.5982 226.553 87.778C227.356 87.9803 227.988 88.2023 228.449 88.4439C228.916 88.6799 229.247 88.9608 229.444 89.2867C229.64 89.607 229.739 90.0031 229.739 90.4751C229.739 91.3517 229.416 92.0428 228.77 92.5485C228.123 93.0486 227.233 93.2986 226.098 93.2986Z" fill="#171717"/>
<rect x="307.767" y="65.9512" width="41.206" height="41.206" rx="20.603" fill="#F6F7F9"/>
<g clip-path="url(#clip4_42_5007)">
<path d="M332.585 87.0229C332.585 86.7451 332.667 86.4735 332.821 86.2425C332.976 86.0115 333.195 85.8314 333.452 85.7251C333.709 85.6188 333.991 85.591 334.263 85.6452C334.536 85.6994 334.786 85.8331 334.983 86.0296C335.179 86.2261 335.313 86.4764 335.367 86.7489C335.421 87.0214 335.394 87.3038 335.287 87.5605C335.181 87.8172 335.001 88.0366 334.77 88.1909C334.539 88.3453 334.267 88.4277 333.989 88.4277C333.617 88.4277 333.26 88.2797 332.996 88.0162C332.733 87.7528 332.585 87.3955 332.585 87.0229ZM326.966 87.0229C326.966 86.7451 327.048 86.4735 327.202 86.2425C327.357 86.0115 327.576 85.8314 327.833 85.7251C328.09 85.6188 328.372 85.591 328.644 85.6452C328.917 85.6994 329.167 85.8331 329.364 86.0296C329.56 86.2261 329.694 86.4764 329.748 86.7489C329.802 87.0214 329.775 87.3038 329.668 87.5605C329.562 87.8172 329.382 88.0366 329.151 88.1909C328.92 88.3453 328.648 88.4277 328.37 88.4277C327.998 88.4277 327.641 88.2797 327.377 88.0162C327.114 87.7528 326.966 87.3955 326.966 87.0229ZM321.347 87.0229C321.347 86.7451 321.429 86.4735 321.583 86.2425C321.738 86.0115 321.957 85.8314 322.214 85.7251C322.471 85.6188 322.753 85.591 323.025 85.6452C323.298 85.6994 323.548 85.8331 323.745 86.0296C323.941 86.2261 324.075 86.4764 324.129 86.7489C324.183 87.0214 324.156 87.3038 324.049 87.5605C323.943 87.8172 323.763 88.0366 323.532 88.1909C323.301 88.3453 323.029 88.4277 322.751 88.4277C322.379 88.4277 322.022 88.2797 321.758 88.0162C321.495 87.7528 321.347 87.3955 321.347 87.0229V87.0229Z" fill="#171717"/>
</g>
<rect x="35.25" y="129.632" width="99.5797" height="45.2216" rx="22.6108" fill="#25703A"/>
<path d="M69.0127 157.743V146.954H72.3391C72.4489 146.954 72.6412 146.957 72.9159 146.962C73.1906 146.967 73.4529 146.987 73.7026 147.022C74.5367 147.132 75.2334 147.436 75.7928 147.936C76.3572 148.43 76.7818 149.06 77.0664 149.824C77.3511 150.588 77.4935 151.43 77.4935 152.349C77.4935 153.268 77.3511 154.109 77.0664 154.873C76.7818 155.637 76.3572 156.269 75.7928 156.769C75.2334 157.263 74.5367 157.565 73.7026 157.675C73.4529 157.705 73.1881 157.725 72.9084 157.735C72.6337 157.74 72.4439 157.743 72.3391 157.743H69.0127ZM70.3837 156.469H72.3391C72.5289 156.469 72.7411 156.464 72.9759 156.454C73.2106 156.439 73.4154 156.417 73.5902 156.387C74.1796 156.277 74.6566 156.03 75.0212 155.645C75.3858 155.26 75.653 154.781 75.8228 154.207C75.9926 153.632 76.0775 153.013 76.0775 152.349C76.0775 151.669 75.9901 151.042 75.8153 150.468C75.6455 149.894 75.3783 149.417 75.0137 149.037C74.6491 148.658 74.1746 148.415 73.5902 148.31C73.4154 148.275 73.2081 148.253 72.9684 148.243C72.7286 148.233 72.5189 148.228 72.3391 148.228H70.3837V156.469ZM81.5116 157.967C80.9072 157.967 80.4003 157.858 79.9907 157.638C79.5862 157.413 79.279 157.118 79.0692 156.754C78.8645 156.389 78.7621 155.99 78.7621 155.555C78.7621 155.131 78.842 154.763 79.0018 154.454C79.1666 154.139 79.3964 153.879 79.6911 153.675C79.9857 153.465 80.3379 153.3 80.7474 153.18C81.132 153.075 81.5615 152.985 82.036 152.91C82.5155 152.83 83 152.758 83.4895 152.693C83.9789 152.628 84.4359 152.566 84.8605 152.506L84.381 152.783C84.396 152.064 84.2511 151.532 83.9465 151.187C83.6468 150.843 83.1273 150.67 82.3881 150.67C81.8987 150.67 81.4691 150.783 81.0995 151.007C80.7349 151.227 80.4777 151.587 80.3279 152.086L79.0617 151.704C79.2565 150.995 79.6336 150.438 80.193 150.034C80.7524 149.629 81.4891 149.427 82.4031 149.427C83.1373 149.427 83.7667 149.559 84.2911 149.824C84.8205 150.083 85.2001 150.478 85.4299 151.007C85.5447 151.257 85.6171 151.529 85.6471 151.824C85.6771 152.114 85.6921 152.418 85.6921 152.738V157.743H84.5083V155.802L84.7855 155.982C84.4809 156.636 84.0538 157.131 83.5044 157.465C82.96 157.8 82.2957 157.967 81.5116 157.967ZM81.7139 156.851C82.1934 156.851 82.6079 156.766 82.9575 156.596C83.3121 156.422 83.5968 156.194 83.8116 155.915C84.0264 155.63 84.1662 155.32 84.2311 154.986C84.3061 154.736 84.346 154.459 84.351 154.154C84.361 153.844 84.366 153.607 84.366 153.442L84.8305 153.645C84.396 153.705 83.9689 153.762 83.5494 153.817C83.1298 153.872 82.7328 153.932 82.3582 153.997C81.9836 154.057 81.6464 154.129 81.3468 154.214C81.127 154.284 80.9197 154.374 80.7249 154.484C80.5351 154.594 80.3803 154.736 80.2604 154.911C80.1456 155.081 80.0881 155.293 80.0881 155.548C80.0881 155.767 80.1431 155.977 80.253 156.177C80.3678 156.377 80.5426 156.539 80.7774 156.664C81.0171 156.789 81.3293 156.851 81.7139 156.851ZM87.7898 148.22V146.842H89.1234V148.22H87.7898ZM87.7898 157.743V149.651H89.1234V157.743H87.7898ZM91.5211 157.743V146.73H92.8547V157.743H91.5211ZM96.2264 161.339L97.7922 157.083L97.8147 158.342L94.2785 149.651H95.6795L98.4515 156.641H97.972L100.572 149.651H101.928L97.5225 161.339H96.2264Z" fill="white"/>
<rect x="142.321" y="129.632" width="99.5797" height="45.2216" rx="22.6108" fill="#F6F7F9"/>
<path d="M170.226 157.743L167.102 146.954H168.496L170.893 155.488L173.283 146.962L174.684 146.954L177.081 155.488L179.471 146.954H180.872L177.748 157.743H176.415L173.987 149.284L171.56 157.743H170.226ZM184.763 157.967C183.969 157.967 183.274 157.793 182.68 157.443C182.091 157.088 181.631 156.596 181.302 155.967C180.972 155.333 180.807 154.594 180.807 153.749C180.807 152.865 180.969 152.101 181.294 151.457C181.619 150.808 182.071 150.308 182.65 149.959C183.234 149.604 183.919 149.427 184.703 149.427C185.517 149.427 186.209 149.614 186.778 149.989C187.352 150.363 187.782 150.898 188.067 151.592C188.356 152.286 188.481 153.113 188.441 154.072H187.093V153.592C187.078 152.598 186.875 151.857 186.486 151.367C186.096 150.873 185.517 150.625 184.748 150.625C183.924 150.625 183.297 150.89 182.867 151.42C182.438 151.949 182.223 152.708 182.223 153.697C182.223 154.651 182.438 155.39 182.867 155.915C183.297 156.439 183.909 156.701 184.703 156.701C185.237 156.701 185.702 156.579 186.096 156.334C186.491 156.089 186.801 155.737 187.025 155.278L188.306 155.72C187.992 156.434 187.517 156.988 186.883 157.383C186.254 157.773 185.547 157.967 184.763 157.967ZM181.774 154.072V153H187.752V154.072H181.774ZM193.616 157.967C192.821 157.967 192.127 157.793 191.533 157.443C190.943 157.088 190.484 156.596 190.154 155.967C189.825 155.333 189.66 154.594 189.66 153.749C189.66 152.865 189.822 152.101 190.147 151.457C190.471 150.808 190.923 150.308 191.503 149.959C192.087 149.604 192.771 149.427 193.556 149.427C194.37 149.427 195.061 149.614 195.631 149.989C196.205 150.363 196.635 150.898 196.919 151.592C197.209 152.286 197.334 153.113 197.294 154.072H195.945V153.592C195.93 152.598 195.728 151.857 195.339 151.367C194.949 150.873 194.37 150.625 193.601 150.625C192.776 150.625 192.15 150.89 191.72 151.42C191.291 151.949 191.076 152.708 191.076 153.697C191.076 154.651 191.291 155.39 191.72 155.915C192.15 156.439 192.761 156.701 193.556 156.701C194.09 156.701 194.554 156.579 194.949 156.334C195.344 156.089 195.653 155.737 195.878 155.278L197.159 155.72C196.845 156.434 196.37 156.988 195.736 157.383C195.106 157.773 194.4 157.967 193.616 157.967ZM190.626 154.072V153H196.605V154.072H190.626ZM198.955 157.743L198.962 146.954H200.311V153.547L203.704 149.651H205.435L201.861 153.697L205.855 157.743H203.989L200.311 153.847V157.743H198.955ZM206.75 157.743V146.73H208.084V157.743H206.75ZM211.455 161.339L213.021 157.083L213.044 158.342L209.507 149.651H210.908L213.68 156.641H213.201L215.801 149.651H217.157L212.751 161.339H211.455Z" fill="#595959"/>
<rect x="249.394" y="129.632" width="99.5797" height="45.2216" rx="22.6108" fill="#F6F7F9"/>
<path d="M271.362 157.743V146.954H272.576L276.652 155.548L280.705 146.954H281.933V157.735H280.667V149.884L277.004 157.743H276.292L272.628 149.884V157.743H271.362ZM287.48 157.967C286.676 157.967 285.982 157.785 285.398 157.421C284.818 157.056 284.371 156.551 284.057 155.907C283.742 155.263 283.585 154.524 283.585 153.69C283.585 152.84 283.744 152.096 284.064 151.457C284.384 150.818 284.836 150.321 285.42 149.966C286.005 149.606 286.691 149.427 287.48 149.427C288.29 149.427 288.986 149.609 289.571 149.974C290.155 150.333 290.602 150.835 290.912 151.479C291.226 152.119 291.384 152.855 291.384 153.69C291.384 154.534 291.226 155.278 290.912 155.922C290.597 156.561 290.148 157.063 289.563 157.428C288.979 157.788 288.285 157.967 287.48 157.967ZM287.48 156.701C288.32 156.701 288.944 156.422 289.353 155.862C289.763 155.303 289.968 154.579 289.968 153.69C289.968 152.776 289.76 152.049 289.346 151.509C288.931 150.965 288.31 150.693 287.48 150.693C286.916 150.693 286.452 150.82 286.087 151.075C285.722 151.33 285.45 151.682 285.27 152.131C285.091 152.581 285.001 153.1 285.001 153.69C285.001 154.599 285.21 155.328 285.63 155.877C286.049 156.427 286.666 156.701 287.48 156.701ZM298.794 157.743V153.69C298.794 153.305 298.76 152.935 298.69 152.581C298.625 152.226 298.507 151.909 298.337 151.629C298.173 151.345 297.948 151.12 297.663 150.955C297.384 150.79 297.029 150.708 296.599 150.708C296.265 150.708 295.96 150.765 295.685 150.88C295.416 150.99 295.183 151.16 294.989 151.39C294.794 151.619 294.641 151.909 294.532 152.259C294.427 152.603 294.374 153.01 294.374 153.48L293.498 153.21C293.498 152.426 293.638 151.754 293.917 151.195C294.202 150.63 294.599 150.198 295.108 149.899C295.623 149.594 296.227 149.442 296.922 149.442C297.446 149.442 297.893 149.524 298.263 149.689C298.632 149.854 298.939 150.073 299.184 150.348C299.429 150.618 299.621 150.923 299.761 151.262C299.901 151.597 299.998 151.939 300.053 152.289C300.113 152.633 300.143 152.96 300.143 153.27V157.743H298.794ZM293.026 157.743V149.651H294.224V151.817H294.374V157.743H293.026ZM306.608 157.743C306.129 157.838 305.654 157.875 305.185 157.855C304.72 157.84 304.306 157.748 303.941 157.578C303.577 157.403 303.299 157.133 303.11 156.769C302.95 156.449 302.862 156.127 302.847 155.802C302.837 155.473 302.832 155.101 302.832 154.686V147.404H304.166V154.626C304.166 154.956 304.169 155.238 304.174 155.473C304.184 155.707 304.236 155.91 304.331 156.079C304.511 156.399 304.795 156.586 305.185 156.641C305.58 156.696 306.054 156.681 306.608 156.596V157.743ZM301.192 150.753V149.651H306.608V150.753H301.192ZM314.012 157.743V153.69C314.012 153.305 313.977 152.935 313.908 152.581C313.843 152.226 313.725 151.909 313.555 151.629C313.391 151.345 313.166 151.12 312.881 150.955C312.601 150.79 312.247 150.708 311.817 150.708C311.483 150.708 311.178 150.765 310.903 150.88C310.634 150.99 310.401 151.16 310.207 151.39C310.012 151.619 309.859 151.909 309.75 152.259C309.645 152.603 309.592 153.01 309.592 153.48L308.716 153.21C308.716 152.426 308.855 151.754 309.135 151.195C309.42 150.63 309.817 150.198 310.326 149.899C310.841 149.594 311.445 149.442 312.139 149.442C312.664 149.442 313.111 149.524 313.48 149.689C313.85 149.854 314.157 150.073 314.402 150.348C314.647 150.618 314.839 150.923 314.979 151.262C315.119 151.597 315.216 151.939 315.271 152.289C315.331 152.633 315.361 152.96 315.361 153.27V157.743H314.012ZM308.244 157.743V146.954H309.442V152.91H309.592V157.743H308.244ZM317.459 157.743V146.73H318.792V157.743H317.459ZM322.164 161.339L323.73 157.083L323.752 158.342L320.216 149.651H321.617L324.389 156.641H323.909L326.509 149.651H327.865L323.46 161.339H322.164Z" fill="#595959"/>
<rect x="35.25" y="189.837" width="313.723" height="248.249" rx="22.4757" fill="#F6F7F9"/>
<rect x="50.2334" y="212.313" width="48.6973" height="183.551" rx="11.2378" fill="#D2D2D2"/>
<rect x="108.998" y="274.121" width="48.6975" height="121.744" rx="11.2378" fill="#D2D2D2"/>
<rect x="167.763" y="253.518" width="48.6975" height="142.347" rx="11.2378" fill="#25703A"/>
<rect x="226.527" y="287.231" width="48.6975" height="108.633" rx="11.2378" fill="#E6E6E6"/>
<rect x="285.292" y="229.169" width="48.6975" height="166.695" rx="11.2378" fill="#E6E6E6"/>
<rect x="148.564" y="199.202" width="88.0297" height="41.4757" rx="11.2378" fill="#5945FD"/>
<path d="M167.97 217.246L167.582 218.725H160.446L160.83 217.246H167.97ZM164.262 225.44L160.622 221.109L160.627 219.778H162.426C162.827 219.778 163.162 219.704 163.431 219.555C163.701 219.406 163.903 219.204 164.038 218.948C164.173 218.693 164.242 218.402 164.246 218.076C164.242 217.586 164.098 217.187 163.815 216.879C163.534 216.566 163.071 216.41 162.426 216.41H160.446L160.883 214.543H162.426C163.33 214.543 164.084 214.679 164.687 214.952C165.294 215.222 165.748 215.607 166.049 216.107C166.354 216.607 166.509 217.203 166.512 217.895C166.509 218.509 166.406 219.044 166.204 219.502C166.005 219.959 165.691 220.341 165.262 220.646C164.836 220.951 164.281 221.178 163.596 221.327L163.511 221.359L166.768 225.344V225.44H164.262ZM167.981 214.543L167.582 216.043H161.707L162.107 214.543H167.981ZM173.35 225.589C172.619 225.589 171.966 225.463 171.392 225.211C170.82 224.959 170.368 224.61 170.035 224.163C169.705 223.712 169.527 223.191 169.503 222.599H171.173C171.195 222.921 171.303 223.202 171.498 223.439C171.697 223.673 171.956 223.854 172.275 223.982C172.594 224.11 172.949 224.174 173.339 224.174C173.768 224.174 174.148 224.099 174.478 223.95C174.811 223.801 175.072 223.594 175.26 223.328C175.448 223.058 175.542 222.748 175.542 222.396C175.542 222.031 175.448 221.71 175.26 221.433C175.075 221.153 174.804 220.933 174.446 220.773C174.091 220.614 173.662 220.534 173.158 220.534H172.238V219.193H173.158C173.563 219.193 173.917 219.12 174.222 218.975C174.531 218.83 174.772 218.627 174.946 218.368C175.12 218.106 175.207 217.799 175.207 217.448C175.207 217.111 175.13 216.818 174.978 216.57C174.829 216.318 174.616 216.121 174.339 215.979C174.066 215.837 173.743 215.766 173.371 215.766C173.016 215.766 172.685 215.832 172.376 215.963C172.071 216.091 171.823 216.275 171.631 216.517C171.439 216.754 171.337 217.04 171.322 217.373H169.731C169.749 216.785 169.923 216.267 170.253 215.82C170.586 215.373 171.026 215.023 171.572 214.771C172.119 214.52 172.725 214.394 173.392 214.394C174.091 214.394 174.694 214.53 175.201 214.803C175.712 215.073 176.106 215.433 176.383 215.884C176.663 216.334 176.801 216.827 176.798 217.363C176.801 217.973 176.631 218.491 176.287 218.916C175.946 219.342 175.492 219.628 174.925 219.773V219.858C175.648 219.968 176.209 220.256 176.606 220.72C177.007 221.185 177.206 221.761 177.202 222.45C177.206 223.049 177.039 223.586 176.702 224.062C176.368 224.537 175.913 224.911 175.334 225.185C174.756 225.454 174.095 225.589 173.35 225.589ZM180.983 223.95L180.903 224.53C180.85 224.956 180.759 225.399 180.631 225.86C180.507 226.325 180.378 226.756 180.243 227.153C180.112 227.551 180.004 227.866 179.918 228.1H178.79C178.836 227.88 178.9 227.583 178.982 227.206C179.064 226.834 179.143 226.417 179.221 225.956C179.299 225.495 179.358 225.025 179.397 224.546L179.45 223.95H180.983ZM183.208 225.44V224.248L186.895 220.428C187.289 220.013 187.614 219.649 187.869 219.337C188.128 219.021 188.322 218.721 188.449 218.438C188.577 218.154 188.641 217.852 188.641 217.533C188.641 217.171 188.556 216.859 188.385 216.597C188.215 216.33 187.983 216.127 187.688 215.985C187.394 215.839 187.062 215.766 186.693 215.766C186.303 215.766 185.963 215.846 185.672 216.006C185.381 216.166 185.157 216.391 185.001 216.682C184.845 216.973 184.767 217.313 184.767 217.703H183.197C183.197 217.04 183.35 216.46 183.655 215.963C183.96 215.467 184.379 215.082 184.911 214.809C185.443 214.532 186.048 214.394 186.725 214.394C187.41 214.394 188.013 214.53 188.534 214.803C189.059 215.073 189.469 215.442 189.763 215.91C190.058 216.375 190.205 216.9 190.205 217.485C190.205 217.89 190.129 218.285 189.976 218.672C189.827 219.058 189.567 219.489 189.194 219.965C188.822 220.436 188.304 221.009 187.64 221.683L185.475 223.95V224.03H190.381V225.44H183.208ZM191.934 223.312V221.981L196.643 214.543H197.692V216.501H197.027L193.658 221.832V221.917H200.113V223.312H191.934ZM197.101 225.44V222.907L197.112 222.301V214.543H198.671V225.44H197.101ZM202.627 225.541C202.336 225.541 202.086 225.438 201.877 225.232C201.667 225.023 201.563 224.771 201.563 224.477C201.563 224.186 201.667 223.938 201.877 223.732C202.086 223.523 202.336 223.418 202.627 223.418C202.918 223.418 203.168 223.523 203.377 223.732C203.586 223.938 203.691 224.186 203.691 224.477C203.691 224.672 203.641 224.851 203.542 225.014C203.446 225.174 203.319 225.302 203.159 225.397C202.999 225.493 202.822 225.541 202.627 225.541ZM209.2 225.621C208.359 225.617 207.641 225.396 207.045 224.956C206.449 224.516 205.993 223.876 205.677 223.035C205.361 222.194 205.204 221.181 205.204 219.997C205.204 218.815 205.361 217.806 205.677 216.969C205.996 216.132 206.454 215.493 207.05 215.053C207.649 214.614 208.366 214.394 209.2 214.394C210.033 214.394 210.748 214.615 211.344 215.059C211.94 215.499 212.396 216.137 212.711 216.974C213.031 217.808 213.19 218.815 213.19 219.997C213.19 221.185 213.032 222.199 212.717 223.04C212.401 223.877 211.945 224.518 211.349 224.961C210.753 225.401 210.037 225.621 209.2 225.621ZM209.2 224.2C209.937 224.2 210.514 223.84 210.929 223.12C211.347 222.4 211.557 221.359 211.557 219.997C211.557 219.092 211.461 218.328 211.269 217.703C211.081 217.075 210.81 216.6 210.455 216.277C210.104 215.951 209.686 215.788 209.2 215.788C208.465 215.788 207.889 216.15 207.47 216.873C207.052 217.597 206.841 218.638 206.837 219.997C206.837 220.905 206.931 221.673 207.119 222.301C207.311 222.925 207.582 223.398 207.933 223.721C208.284 224.041 208.706 224.2 209.2 224.2ZM218.872 225.621C218.031 225.617 217.313 225.396 216.717 224.956C216.121 224.516 215.665 223.876 215.349 223.035C215.034 222.194 214.876 221.181 214.876 219.997C214.876 218.815 215.034 217.806 215.349 216.969C215.669 216.132 216.126 215.493 216.722 215.053C217.322 214.614 218.038 214.394 218.872 214.394C219.705 214.394 220.42 214.615 221.016 215.059C221.612 215.499 222.068 216.137 222.384 216.974C222.703 217.808 222.862 218.815 222.862 219.997C222.862 221.185 222.705 222.199 222.389 223.04C222.073 223.877 221.617 224.518 221.021 224.961C220.425 225.401 219.709 225.621 218.872 225.621ZM218.872 224.2C219.61 224.2 220.186 223.84 220.601 223.12C221.02 222.4 221.229 221.359 221.229 219.997C221.229 219.092 221.133 218.328 220.942 217.703C220.754 217.075 220.482 216.6 220.127 216.277C219.776 215.951 219.358 215.788 218.872 215.788C218.137 215.788 217.561 216.15 217.142 216.873C216.724 217.597 216.513 218.638 216.509 219.997C216.509 220.905 216.603 221.673 216.791 222.301C216.983 222.925 217.254 223.398 217.605 223.721C217.957 224.041 218.379 224.2 218.872 224.2Z" fill="white"/>
<path d="M192.581 247.899L186.904 238.066L198.258 238.066L192.581 247.899Z" fill="#5945FD"/>
<path d="M324.216 34.7896H336.049C337.369 34.7896 338.44 35.8596 338.44 37.1802V41.1294C338.44 42.4501 337.37 43.521 336.049 43.521H324.216C322.895 43.5208 321.825 42.45 321.825 41.1294V37.1802C321.825 35.9422 322.766 34.9237 323.972 34.8013L324.216 34.7896Z" stroke="black" stroke-opacity="0.4" stroke-width="0.845016"/>
<path d="M339.714 37.4648V40.8449C340.394 40.5586 340.836 39.8927 340.836 39.1549C340.836 38.4171 340.394 37.7511 339.714 37.4648Z" fill="black" fill-opacity="0.4"/>
<rect x="323.092" y="36.0566" width="14.078" height="6.19679" rx="1.12669" fill="black"/>
<path d="M308.529 41.4571C309.607 40.5455 311.186 40.5456 312.264 41.4571C312.318 41.5061 312.35 41.5754 312.352 41.6485C312.353 41.7214 312.324 41.7917 312.272 41.8428L310.584 43.546C310.535 43.596 310.467 43.6241 310.396 43.6241C310.326 43.624 310.259 43.5959 310.21 43.546L308.521 41.8428C308.47 41.7917 308.441 41.7214 308.442 41.6485C308.444 41.5755 308.475 41.5061 308.529 41.4571ZM306.277 39.1846C308.6 37.0244 312.196 37.0244 314.519 39.1846C314.571 39.2353 314.601 39.3051 314.602 39.378C314.602 39.4507 314.574 39.5207 314.522 39.5723L313.547 40.5586C313.446 40.6592 313.284 40.6612 313.181 40.5635C312.418 39.873 311.425 39.4902 310.396 39.4903C309.369 39.4908 308.377 39.8735 307.615 40.5635C307.512 40.6613 307.349 40.6592 307.249 40.5586L306.273 39.5723C306.222 39.5208 306.194 39.4507 306.194 39.378C306.195 39.3051 306.225 39.2353 306.277 39.1846ZM304.025 36.919C307.587 33.5055 313.207 33.5055 316.769 36.919C316.82 36.9696 316.849 37.0384 316.85 37.1104C316.85 37.1827 316.821 37.2525 316.771 37.3038L315.794 38.2901C315.693 38.3911 315.53 38.3922 315.428 38.293C314.071 37.0029 312.27 36.2834 310.397 36.2833C308.525 36.2833 306.723 37.0028 305.366 38.293C305.264 38.3925 305.101 38.3911 305 38.2901L304.022 37.3038C303.972 37.2524 303.944 37.1826 303.944 37.1104C303.945 37.0383 303.974 36.9696 304.025 36.919Z" fill="black"/>
<path d="M286.757 40.2798C287.223 40.28 287.602 40.6579 287.602 41.1245V42.8149C287.601 43.2813 287.223 43.6595 286.757 43.6597H285.911C285.445 43.6595 285.067 43.2813 285.066 42.8149V41.1245C285.066 40.6579 285.445 40.28 285.911 40.2798H286.757ZM290.7 38.5894C291.167 38.5894 291.545 38.9676 291.545 39.4341V42.8149C291.545 43.2814 291.167 43.6597 290.7 43.6597H289.855C289.389 43.6597 289.01 43.2814 289.01 42.8149V39.4341C289.01 38.9676 289.389 38.5894 289.855 38.5894H290.7ZM294.643 36.6177C295.109 36.6177 295.488 36.9959 295.488 37.4624V42.8149C295.488 43.2814 295.109 43.6597 294.643 43.6597H293.798C293.331 43.6596 292.953 43.2814 292.953 42.8149V37.4624C292.953 36.9959 293.331 36.6178 293.798 36.6177H294.643ZM298.587 34.646C299.053 34.6461 299.431 35.0242 299.432 35.4907V42.8149C299.431 43.2814 299.053 43.6596 298.587 43.6597H297.742C297.276 43.6597 296.897 43.2814 296.896 42.8149V35.4907C296.897 35.0242 297.276 34.646 297.742 34.646H298.587Z" fill="black"/>
<path d="M60.5962 34.7462C62.5024 34.7462 64.1611 36.1017 64.1611 39.32V39.3324C64.1611 42.3403 62.8057 44.1227 60.5591 44.1227C58.919 44.1227 57.6935 43.151 57.4088 41.7832L57.3964 41.7152H58.9685L58.987 41.777C59.2222 42.4021 59.7731 42.8106 60.5591 42.8106C61.9764 42.8106 62.5767 41.4243 62.6448 39.7161C62.6448 39.648 62.651 39.5799 62.651 39.5118H62.5272C62.1992 40.2174 61.4193 40.8425 60.1939 40.8425C58.4795 40.8425 57.2789 39.5923 57.2789 37.8965V37.8841C57.2789 36.0707 58.659 34.7462 60.5962 34.7462ZM60.59 39.6171C61.5988 39.6171 62.3725 38.8867 62.3725 37.8779V37.8655C62.3725 36.8443 61.5988 36.046 60.6086 36.046C59.6245 36.046 58.8385 36.832 58.8385 37.8284V37.8408C58.8385 38.8744 59.575 39.6171 60.59 39.6171ZM66.7344 38.1131C66.1711 38.1131 65.7503 37.6799 65.7503 37.1352C65.7503 36.5844 66.1711 36.1574 66.7344 36.1574C67.3038 36.1574 67.7184 36.5844 67.7184 37.1352C67.7184 37.6799 67.3038 38.1131 66.7344 38.1131ZM66.7344 42.7054C66.1711 42.7054 65.7503 42.2784 65.7503 41.7275C65.7503 41.1767 66.1711 40.7497 66.7344 40.7497C67.3038 40.7497 67.7184 41.1767 67.7184 41.7275C67.7184 42.2784 67.3038 42.7054 66.7344 42.7054ZM73.64 43.8999V42.1855H69.2705V40.8796C70.4278 38.8682 71.6966 36.8134 72.9096 34.9691H75.1687V40.8673H76.3693V42.1855H75.1687V43.8999H73.64ZM70.7558 40.9044H73.6647V36.244H73.5719C72.6559 37.6427 71.6223 39.2952 70.7558 40.8115V40.9044ZM79.8338 43.8999V36.5411H79.7286L77.5067 38.1131V36.6092L79.84 34.9691H81.4306V43.8999H79.8338Z" fill="black"/>
</g>
</g>
<rect x="136.512" y="27.8857" width="101.402" height="27.8855" rx="13.9428" fill="#030303"/>
<circle cx="221.437" cy="41.8282" r="8.87267" fill="#0E0B0F"/>
<circle cx="221.345" cy="41.7366" r="4.55591" fill="#161424"/>
<circle cx="221.345" cy="41.737" r="2.73354" fill="#0F0F2A"/>
<circle cx="221.345" cy="40.8252" r="0.911181" fill="#393752"/>
<circle cx="202.377" cy="41.5382" r="1.82236" fill="#30B94D"/>
<defs>
<filter id="filter0_f_42_5007" x="0.46553" y="142.807" width="2.53476" height="3.37997" filterUnits="userSpaceOnUse" color-interpolation-filters="sRGB">
<feFlood flood-opacity="0" result="BackgroundImageFix"/>
<feBlend mode="normal" in="SourceGraphic" in2="BackgroundImageFix" result="shape"/>
<feGaussianBlur stdDeviation="0.422508" result="effect1_foregroundBlur_42_5007"/>
</filter>
<filter id="filter1_f_42_5007" x="0.46553" y="144.498" width="2.53476" height="23.6602" filterUnits="userSpaceOnUse" color-interpolation-filters="sRGB">
<feFlood flood-opacity="0" result="BackgroundImageFix"/>
<feBlend mode="normal" in="SourceGraphic" in2="BackgroundImageFix" result="shape"/>
<feGaussianBlur stdDeviation="0.422508" result="effect1_foregroundBlur_42_5007"/>
</filter>
<filter id="filter2_f_42_5007" x="0.46553" y="195.198" width="2.53476" height="3.37997" filterUnits="userSpaceOnUse" color-interpolation-filters="sRGB">
<feFlood flood-opacity="0" result="BackgroundImageFix"/>
<feBlend mode="normal" in="SourceGraphic" in2="BackgroundImageFix" result="shape"/>
<feGaussianBlur stdDeviation="0.422508" result="effect1_foregroundBlur_42_5007"/>
</filter>
<filter id="filter3_f_42_5007" x="0.46553" y="196.888" width="2.53476" height="50.7008" filterUnits="userSpaceOnUse" color-interpolation-filters="sRGB">
<feFlood flood-opacity="0" result="BackgroundImageFix"/>
<feBlend mode="normal" in="SourceGraphic" in2="BackgroundImageFix" result="shape"/>
<feGaussianBlur stdDeviation="0.422508" result="effect1_foregroundBlur_42_5007"/>
</filter>
<filter id="filter4_f_42_5007" x="0.46553" y="262.8" width="2.53476" height="3.37997" filterUnits="userSpaceOnUse" color-interpolation-filters="sRGB">
<feFlood flood-opacity="0" result="BackgroundImageFix"/>
<feBlend mode="normal" in="SourceGraphic" in2="BackgroundImageFix" result="shape"/>
<feGaussianBlur stdDeviation="0.422508" result="effect1_foregroundBlur_42_5007"/>
</filter>
<filter id="filter5_f_42_5007" x="0.46553" y="264.49" width="2.53476" height="50.7008" filterUnits="userSpaceOnUse" color-interpolation-filters="sRGB">
<feFlood flood-opacity="0" result="BackgroundImageFix"/>
<feBlend mode="normal" in="SourceGraphic" in2="BackgroundImageFix" result="shape"/>
<feGaussianBlur stdDeviation="0.422508" result="effect1_foregroundBlur_42_5007"/>
</filter>
<filter id="filter6_f_42_5007" x="380.722" y="213.789" width="2.53476" height="3.37997" filterUnits="userSpaceOnUse" color-interpolation-filters="sRGB">
<feFlood flood-opacity="0" result="BackgroundImageFix"/>
<feBlend mode="normal" in="SourceGraphic" in2="BackgroundImageFix" result="shape"/>
<feGaussianBlur stdDeviation="0.422508" result="effect1_foregroundBlur_42_5007"/>
</filter>
<filter id="filter7_f_42_5007" x="380.722" y="215.479" width="2.53476" height="80.2765" filterUnits="userSpaceOnUse" color-interpolation-filters="sRGB">
<feFlood flood-opacity="0" result="BackgroundImageFix"/>
<feBlend mode="normal" in="SourceGraphic" in2="BackgroundImageFix" result="shape"/>
<feGaussianBlur stdDeviation="0.422508" result="effect1_foregroundBlur_42_5007"/>
</filter>
<filter id="filter8_f_42_5007" x="-0.696821" y="-3.69682" width="385.394" height="786.499" filterUnits="userSpaceOnUse" color-interpolation-filters="sRGB">
<feFlood flood-opacity="0" result="BackgroundImageFix"/>
<feBlend mode="normal" in="SourceGraphic" in2="BackgroundImageFix" result="shape"/>
<feGaussianBlur stdDeviation="1.84841" result="effect1_foregroundBlur_42_5007"/>
</filter>
<filter id="filter9_f_42_5007" x="1.15159" y="-1.84841" width="381.697" height="782.802" filterUnits="userSpaceOnUse" color-interpolation-filters="sRGB">
<feFlood flood-opacity="0" result="BackgroundImageFix"/>
<feBlend mode="normal" in="SourceGraphic" in2="BackgroundImageFix" result="shape"/>
<feGaussianBlur stdDeviation="0.924205" result="effect1_foregroundBlur_42_5007"/>
</filter>
<filter id="filter10_f_42_5007" x="6.2219" y="3.2219" width="372.124" height="772.662" filterUnits="userSpaceOnUse" color-interpolation-filters="sRGB">
<feFlood flood-opacity="0" result="BackgroundImageFix"/>
<feBlend mode="normal" in="SourceGraphic" in2="BackgroundImageFix" result="shape"/>
<feGaussianBlur stdDeviation="0.924205" result="effect1_foregroundBlur_42_5007"/>
</filter>
<filter id="filter11_f_42_5007" x="2.44658" y="-0.554399" width="379.848" height="780.029" filterUnits="userSpaceOnUse" color-interpolation-filters="sRGB">
<feFlood flood-opacity="0" result="BackgroundImageFix"/>
<feBlend mode="normal" in="SourceGraphic" in2="BackgroundImageFix" result="shape"/>
<feGaussianBlur stdDeviation="3.23472" result="effect1_foregroundBlur_42_5007"/>
</filter>
<linearGradient id="paint0_linear_42_5007" x1="2.57738" y1="142.808" x2="2.57738" y2="145.565" gradientUnits="userSpaceOnUse">
<stop/>
<stop offset="1" stop-opacity="0"/>
</linearGradient>
<linearGradient id="paint1_linear_42_5007" x1="4.68993" y1="142.808" x2="1.73237" y2="142.808" gradientUnits="userSpaceOnUse">
<stop/>
<stop offset="1" stop-color="#AEAEAE" stop-opacity="0"/>
</linearGradient>
<linearGradient id="paint2_linear_42_5007" x1="2.57738" y1="164.522" x2="2.57738" y2="169.003" gradientUnits="userSpaceOnUse">
<stop stop-opacity="0"/>
<stop offset="1"/>
</linearGradient>
<linearGradient id="paint3_linear_42_5007" x1="2.57738" y1="194.354" x2="2.57738" y2="197.734" gradientUnits="userSpaceOnUse">
<stop/>
<stop offset="1" stop-opacity="0"/>
</linearGradient>
<linearGradient id="paint4_linear_42_5007" x1="4.68993" y1="194.354" x2="1.73237" y2="194.354" gradientUnits="userSpaceOnUse">
<stop/>
<stop offset="1" stop-color="#AEAEAE" stop-opacity="0"/>
</linearGradient>
<linearGradient id="paint5_linear_42_5007" x1="2.57738" y1="243.787" x2="2.57738" y2="248.435" gradientUnits="userSpaceOnUse">
<stop stop-opacity="0"/>
<stop offset="1"/>
</linearGradient>
<linearGradient id="paint6_linear_42_5007" x1="2.57738" y1="261.955" x2="2.57738" y2="265.335" gradientUnits="userSpaceOnUse">
<stop/>
<stop offset="1" stop-opacity="0"/>
</linearGradient>
<linearGradient id="paint7_linear_42_5007" x1="4.68993" y1="261.955" x2="1.73237" y2="261.955" gradientUnits="userSpaceOnUse">
<stop/>
<stop offset="1" stop-color="#AEAEAE" stop-opacity="0"/>
</linearGradient>
<linearGradient id="paint8_linear_42_5007" x1="2.57738" y1="311.389" x2="2.57738" y2="316.036" gradientUnits="userSpaceOnUse">
<stop stop-opacity="0"/>
<stop offset="1"/>
</linearGradient>
<linearGradient id="paint9_linear_42_5007" x1="381.145" y1="212.944" x2="381.145" y2="216.324" gradientUnits="userSpaceOnUse">
<stop/>
<stop offset="1" stop-opacity="0"/>
</linearGradient>
<linearGradient id="paint10_linear_42_5007" x1="379.033" y1="212.944" x2="381.99" y2="212.944" gradientUnits="userSpaceOnUse">
<stop/>
<stop offset="1" stop-color="#AEAEAE" stop-opacity="0"/>
</linearGradient>
<linearGradient id="paint11_linear_42_5007" x1="381.145" y1="292.798" x2="381.145" y2="296.6" gradientUnits="userSpaceOnUse">
<stop stop-opacity="0"/>
<stop offset="1"/>
</linearGradient>
<radialGradient id="paint12_radial_42_5007" cx="0" cy="0" r="1" gradientUnits="userSpaceOnUse" gradientTransform="translate(192.833 182.9) rotate(90) scale(314.23 350.57)">
<stop stop-color="#879194"/>
<stop offset="1"/>
</radialGradient>
<clipPath id="clip0_42_5007">
<rect x="3" width="378" height="779.105" rx="63.3762" fill="white"/>
</clipPath>
<clipPath id="clip1_42_5007">
<rect x="8.91602" y="5.91504" width="366.91" height="767.09" rx="57.4611" fill="white"/>
</clipPath>
<clipPath id="clip2_42_5007">
<rect x="17.3652" y="14.3652" width="349.837" height="750.375" rx="49.856" fill="white"/>
</clipPath>
<clipPath id="clip3_42_5007">
<rect width="351.182" height="760.427" fill="white" transform="translate(16.5195 9.76172)"/>
</clipPath>
<clipPath id="clip4_42_5007">
<rect width="22.476" height="22.476" fill="white" transform="translate(317.132 75.3164)"/>
</clipPath>
</defs>
</svg>
