<svg width="102" height="46" viewBox="0 0 102 46" fill="none" xmlns="http://www.w3.org/2000/svg">
<path d="M23.1992 18.5069C22.7052 17.466 21.6467 16.7427 20.4118 16.7427H16.4424V14.9785H27.0275V16.7427H24.1518C24.5753 17.2543 24.8928 17.8541 25.078 18.5069H27.0275V20.2711H25.2456C25.0251 22.7409 22.9434 24.6815 20.4118 24.6815H19.7679L25.7043 30.8561H23.2609L17.3245 24.6815V22.9173H20.4118C21.9643 22.9173 23.2521 21.7706 23.4638 20.2711H16.4424V18.5069H23.1992Z" fill="white"/>
<path d="M35.7285 14.6174C37.8983 18.1566 38.6113 22.3992 37.7174 26.4532C36.8236 30.5073 34.3926 34.0567 30.9357 36.3553C27.4788 38.6539 23.2652 39.5225 19.1811 38.7784C15.0969 38.0344 11.4604 35.7356 9.03617 32.3656C6.61195 28.9956 5.58893 24.8168 6.18222 20.7081C6.7755 16.5993 8.93888 12.8807 12.2174 10.3341C15.496 7.78754 19.6342 6.61146 23.7621 7.05317C27.8899 7.49488 31.6856 9.51997 34.3511 12.7026L32.0846 14.6007C29.9105 12.0048 26.8144 10.353 23.4475 9.99267C20.0806 9.63238 16.7051 10.5917 14.0309 12.6688C11.3567 14.746 9.59208 17.7792 9.10816 21.1306C8.62423 24.482 9.45868 27.8904 11.436 30.6393C13.4134 33.3881 16.3796 35.2631 19.7109 35.87C23.0422 36.4769 26.4791 35.7684 29.2988 33.8936C32.1185 32.0187 34.1014 29.1235 34.8305 25.8167C35.5596 22.51 34.978 19.0494 33.2081 16.1626L35.7285 14.6174Z" fill="white"/>
<rect x="18.5205" y="30.7617" width="3.06132" height="5.55217" transform="rotate(33.3501 18.5205 30.7617)" fill="white"/>
<path d="M33.0488 8.56396L35.511 10.3831L32.1109 14.0955L30.1027 12.5515L33.0488 8.56396Z" fill="white"/>
<path d="M37.2066 5.73321L35.6155 11.6686L31.5956 8.23865L37.2066 5.73321Z" fill="white"/>
<path d="M50.0913 19.5V9.42H51.7993L56.4753 16.525V9.42H58.1833V19.5H56.4753L51.7993 12.395V19.5H50.0913ZM60.4622 10.792V9.245H62.1492V10.792H60.4622ZM60.4622 19.5V11.94H62.1492V19.5H60.4622ZM66.472 19.5L63.728 11.94H65.415L67.319 17.421L69.216 11.94H70.91L68.166 19.5H66.472ZM75.5118 19.71C74.7465 19.71 74.0745 19.5443 73.4958 19.213C72.9172 18.8817 72.4645 18.422 72.1378 17.834C71.8158 17.246 71.6548 16.5693 71.6548 15.804C71.6548 14.978 71.8135 14.2617 72.1308 13.655C72.4482 13.0437 72.8892 12.57 73.4538 12.234C74.0185 11.898 74.6718 11.73 75.4138 11.73C76.1978 11.73 76.8628 11.9143 77.4088 12.283C77.9595 12.647 78.3678 13.1627 78.6338 13.83C78.8998 14.4973 79.0002 15.2837 78.9348 16.189H77.2618V15.573C77.2572 14.7517 77.1125 14.152 76.8278 13.774C76.5432 13.396 76.0952 13.207 75.4838 13.207C74.7932 13.207 74.2798 13.4217 73.9438 13.851C73.6078 14.2757 73.4398 14.8987 73.4398 15.72C73.4398 16.4853 73.6078 17.078 73.9438 17.498C74.2798 17.918 74.7698 18.128 75.4138 18.128C75.8292 18.128 76.1862 18.037 76.4848 17.855C76.7882 17.6683 77.0215 17.4 77.1848 17.05L78.8508 17.554C78.5615 18.2353 78.1135 18.765 77.5068 19.143C76.9048 19.521 76.2398 19.71 75.5118 19.71ZM72.9078 16.189V14.915H78.1088V16.189H72.9078ZM83.5977 19.71C82.6644 19.71 81.906 19.5 81.3227 19.08C80.7394 18.66 80.3847 18.0697 80.2587 17.309L81.9807 17.043C82.0694 17.4163 82.2654 17.7103 82.5687 17.925C82.872 18.1397 83.2547 18.247 83.7167 18.247C84.1227 18.247 84.4354 18.1677 84.6547 18.009C84.8787 17.8457 84.9907 17.624 84.9907 17.344C84.9907 17.1713 84.9487 17.0337 84.8647 16.931C84.7854 16.8237 84.608 16.721 84.3327 16.623C84.0574 16.525 83.635 16.4013 83.0657 16.252C82.431 16.084 81.927 15.9043 81.5537 15.713C81.1804 15.517 80.912 15.286 80.7487 15.02C80.5854 14.754 80.5037 14.432 80.5037 14.054C80.5037 13.5827 80.6274 13.172 80.8747 12.822C81.122 12.472 81.4674 12.2037 81.9107 12.017C82.354 11.8257 82.8767 11.73 83.4787 11.73C84.0667 11.73 84.587 11.821 85.0397 12.003C85.497 12.185 85.8657 12.444 86.1457 12.78C86.4257 13.116 86.5984 13.5103 86.6637 13.963L84.9417 14.271C84.8997 13.949 84.7527 13.6947 84.5007 13.508C84.2534 13.3213 83.922 13.2163 83.5067 13.193C83.11 13.1697 82.7904 13.2303 82.5477 13.375C82.305 13.515 82.1837 13.7133 82.1837 13.97C82.1837 14.1147 82.2327 14.2383 82.3307 14.341C82.4287 14.4437 82.6247 14.5463 82.9187 14.649C83.2174 14.7517 83.6607 14.8777 84.2487 15.027C84.8507 15.181 85.3314 15.3583 85.6907 15.559C86.0547 15.755 86.316 15.9907 86.4747 16.266C86.638 16.5413 86.7197 16.875 86.7197 17.267C86.7197 18.0277 86.442 18.625 85.8867 19.059C85.336 19.493 84.573 19.71 83.5977 19.71ZM93.6639 19.5V15.86C93.6639 15.622 93.6476 15.3583 93.6149 15.069C93.5823 14.7797 93.5053 14.502 93.3839 14.236C93.2673 13.9653 93.0899 13.7437 92.8519 13.571C92.6186 13.3983 92.3013 13.312 91.8999 13.312C91.6853 13.312 91.4729 13.347 91.2629 13.417C91.0529 13.487 90.8616 13.6083 90.6889 13.781C90.5209 13.949 90.3856 14.1823 90.2829 14.481C90.1803 14.775 90.1289 15.153 90.1289 15.615L89.1279 15.188C89.1279 14.544 89.2516 13.9607 89.4989 13.438C89.7509 12.9153 90.1196 12.5 90.6049 12.192C91.0903 11.8793 91.6876 11.723 92.3969 11.723C92.9569 11.723 93.4189 11.8163 93.7829 12.003C94.1469 12.1897 94.4363 12.4277 94.6509 12.717C94.8656 13.0063 95.0243 13.3143 95.1269 13.641C95.2296 13.9677 95.2949 14.278 95.3229 14.572C95.3556 14.8613 95.3719 15.097 95.3719 15.279V19.5H93.6639ZM88.4209 19.5V9.42H89.9259V14.726H90.1289V19.5H88.4209ZM50.0213 37.5V28.14H53.8888C53.9798 28.14 54.0968 28.1443 54.2398 28.153C54.3828 28.1573 54.515 28.1703 54.6363 28.192C55.178 28.2743 55.6243 28.4542 55.9753 28.7315C56.3307 29.0088 56.5928 29.3598 56.7618 29.7845C56.9352 30.2048 57.0218 30.6728 57.0218 31.1885C57.0218 31.9512 56.829 32.6077 56.4433 33.158C56.0577 33.704 55.4662 34.042 54.6688 34.172L53.9993 34.2305H51.5878V37.5H50.0213ZM55.3968 37.5L53.5508 33.691L55.1433 33.34L57.1713 37.5H55.3968ZM51.5878 32.768H53.8238C53.9105 32.768 54.008 32.7637 54.1163 32.755C54.2247 32.7463 54.3243 32.729 54.4153 32.703C54.6753 32.638 54.879 32.5232 55.0263 32.3585C55.178 32.1938 55.2842 32.0075 55.3448 31.7995C55.4098 31.5915 55.4423 31.3878 55.4423 31.1885C55.4423 30.9892 55.4098 30.7855 55.3448 30.5775C55.2842 30.3652 55.178 30.1767 55.0263 30.012C54.879 29.8473 54.6753 29.7325 54.4153 29.6675C54.3243 29.6415 54.2247 29.6263 54.1163 29.622C54.008 29.6133 53.9105 29.609 53.8238 29.609H51.5878V32.768ZM61.9639 37.695C61.2532 37.695 60.6292 37.5412 60.0919 37.2335C59.5545 36.9258 59.1342 36.499 58.8309 35.953C58.5319 35.407 58.3824 34.7787 58.3824 34.068C58.3824 33.301 58.5297 32.6358 58.8244 32.0725C59.119 31.5048 59.5285 31.065 60.0529 30.753C60.5772 30.441 61.1839 30.285 61.8729 30.285C62.6009 30.285 63.2184 30.4562 63.7254 30.7985C64.2367 31.1365 64.6159 31.6153 64.8629 32.235C65.1099 32.8547 65.203 33.5848 65.1424 34.4255H63.5889V33.8535C63.5845 33.0908 63.4502 32.534 63.1859 32.183C62.9215 31.832 62.5055 31.6565 61.9379 31.6565C61.2965 31.6565 60.8199 31.8558 60.5079 32.2545C60.1959 32.6488 60.0399 33.2273 60.0399 33.99C60.0399 34.7007 60.1959 35.251 60.5079 35.641C60.8199 36.031 61.2749 36.226 61.8729 36.226C62.2585 36.226 62.59 36.1415 62.8674 35.9725C63.149 35.7992 63.3657 35.55 63.5174 35.225L65.0644 35.693C64.7957 36.3257 64.3797 36.8175 63.8164 37.1685C63.2574 37.5195 62.6399 37.695 61.9639 37.695ZM59.5459 34.4255V33.2425H64.3754V34.4255H59.5459ZM70.8762 37.5C70.4125 37.5867 69.9575 37.6235 69.5112 37.6105C69.0692 37.6018 68.6727 37.5217 68.3217 37.37C67.9707 37.214 67.7042 36.9692 67.5222 36.6355C67.3618 36.3322 67.2773 36.0223 67.2687 35.706C67.26 35.3897 67.2557 35.0322 67.2557 34.6335V28.53H68.8157V34.5425C68.8157 34.8242 68.8178 35.0712 68.8222 35.2835C68.8308 35.4958 68.8763 35.6692 68.9587 35.8035C69.1147 36.0635 69.3638 36.2087 69.7062 36.239C70.0485 36.2693 70.4385 36.252 70.8762 36.187V37.5ZM65.9817 31.7085V30.48H70.8762V31.7085H65.9817ZM75.1872 37.7015C74.6672 37.7015 74.2382 37.6148 73.9002 37.4415C73.5622 37.2682 73.2935 37.0472 73.0942 36.7785C72.8949 36.5098 72.7475 36.2238 72.6522 35.9205C72.5569 35.6172 72.494 35.3312 72.4637 35.0625C72.4377 34.7895 72.4247 34.5685 72.4247 34.3995V30.48H74.0107V33.86C74.0107 34.0767 74.0259 34.3215 74.0562 34.5945C74.0865 34.8632 74.1559 35.1232 74.2642 35.3745C74.3769 35.6215 74.5415 35.8252 74.7582 35.9855C74.9792 36.1458 75.276 36.226 75.6487 36.226C75.848 36.226 76.0452 36.1935 76.2402 36.1285C76.4352 36.0635 76.6107 35.953 76.7667 35.797C76.927 35.6367 77.0549 35.4178 77.1502 35.1405C77.2455 34.8632 77.2932 34.5122 77.2932 34.0875L78.2227 34.484C78.2227 35.082 78.1057 35.6237 77.8717 36.109C77.642 36.5943 77.3019 36.9822 76.8512 37.2725C76.4005 37.5585 75.8459 37.7015 75.1872 37.7015ZM77.4817 37.5V35.3225H77.2932V30.48H78.8662V37.5H77.4817ZM80.8614 37.5V30.48H82.2459V32.1895L82.0769 31.9685C82.1636 31.7345 82.2784 31.5222 82.4214 31.3315C82.5687 31.1365 82.7442 30.9762 82.9479 30.8505C83.1212 30.7335 83.3119 30.6425 83.5199 30.5775C83.7322 30.5082 83.9489 30.467 84.1699 30.454C84.3909 30.4367 84.6054 30.4453 84.8134 30.48V31.9425C84.6054 31.8818 84.3649 31.8623 84.0919 31.884C83.8232 31.9057 83.5806 31.9815 83.3639 32.1115C83.1472 32.2285 82.9696 32.378 82.8309 32.56C82.6966 32.742 82.5969 32.95 82.5319 33.184C82.4669 33.4137 82.4344 33.6628 82.4344 33.9315V37.5H80.8614ZM91.0783 37.5V34.12C91.0783 33.899 91.0631 33.6542 91.0328 33.3855C91.0024 33.1168 90.9309 32.859 90.8183 32.612C90.7099 32.3607 90.5453 32.1548 90.3243 31.9945C90.1076 31.8342 89.8129 31.754 89.4403 31.754C89.2409 31.754 89.0438 31.7865 88.8488 31.8515C88.6538 31.9165 88.4761 32.0292 88.3158 32.1895C88.1598 32.3455 88.0341 32.5622 87.9388 32.8395C87.8434 33.1125 87.7958 33.4635 87.7958 33.8925L86.8663 33.496C86.8663 32.898 86.9811 32.3563 87.2108 31.871C87.4448 31.3857 87.7871 31 88.2378 30.714C88.6884 30.4237 89.2431 30.2785 89.9018 30.2785C90.4218 30.2785 90.8508 30.3652 91.1888 30.5385C91.5268 30.7118 91.7954 30.9328 91.9948 31.2015C92.1941 31.4702 92.3414 31.7562 92.4368 32.0595C92.5321 32.3628 92.5928 32.651 92.6188 32.924C92.6491 33.1927 92.6643 33.4115 92.6643 33.5805V37.5H91.0783ZM86.2098 37.5V30.48H87.6073V32.6575H87.7958V37.5H86.2098ZM97.24 37.695C96.3733 37.695 95.6691 37.5 95.1275 37.11C94.5858 36.72 94.2565 36.1718 94.1395 35.4655L95.7385 35.2185C95.8208 35.5652 96.0028 35.8382 96.2845 36.0375C96.5661 36.2368 96.9215 36.3365 97.3505 36.3365C97.7275 36.3365 98.0178 36.2628 98.2215 36.1155C98.4295 35.9638 98.5335 35.758 98.5335 35.498C98.5335 35.3377 98.4945 35.2098 98.4165 35.1145C98.3428 35.0148 98.1781 34.9195 97.9225 34.8285C97.6668 34.7375 97.2746 34.6227 96.746 34.484C96.1566 34.328 95.6886 34.1612 95.342 33.9835C94.9953 33.8015 94.7461 33.587 94.5945 33.34C94.4428 33.093 94.367 32.794 94.367 32.443C94.367 32.0053 94.4818 31.624 94.7115 31.299C94.9411 30.974 95.2618 30.7248 95.6735 30.5515C96.0851 30.3738 96.5705 30.285 97.1295 30.285C97.6755 30.285 98.1586 30.3695 98.579 30.5385C99.0036 30.7075 99.346 30.948 99.606 31.26C99.866 31.572 100.026 31.9382 100.087 32.3585L98.488 32.6445C98.449 32.3455 98.3125 32.1093 98.0785 31.936C97.8488 31.7627 97.5411 31.6652 97.1555 31.6435C96.7871 31.6218 96.4903 31.6782 96.265 31.8125C96.0396 31.9425 95.927 32.1267 95.927 32.365C95.927 32.4993 95.9725 32.6142 96.0635 32.7095C96.1545 32.8048 96.3365 32.9002 96.6095 32.9955C96.8868 33.0908 97.2985 33.2078 97.8445 33.3465C98.4035 33.4895 98.8498 33.6542 99.1835 33.8405C99.5215 34.0225 99.7641 34.2413 99.9115 34.497C100.063 34.7527 100.139 35.0625 100.139 35.4265C100.139 36.1328 99.8811 36.6875 99.3655 37.0905C98.8541 37.4935 98.1456 37.695 97.24 37.695Z" fill="white"/>
</svg>
