<svg width="102" height="45" viewBox="0 0 102 45" fill="none" xmlns="http://www.w3.org/2000/svg">
<path d="M23.1992 17.5625C22.7052 16.5217 21.6467 15.7984 20.4118 15.7984H16.4424V14.0342H27.0275V15.7984H24.1518C24.5753 16.31 24.8928 16.9098 25.078 17.5625H27.0275V19.3267H25.2456C25.0251 21.7966 22.9434 23.7372 20.4118 23.7372H19.7679L25.7043 29.9118H23.2609L17.3245 23.7372V21.973H20.4118C21.9643 21.973 23.2521 20.8263 23.4638 19.3267H16.4424V17.5625H23.1992Z" fill="#25703A"/>
<path d="M35.7285 13.673C37.8983 17.2121 38.6113 21.4548 37.7174 25.5088C36.8236 29.5628 34.3926 33.1123 30.9357 35.4109C27.4788 37.7094 23.2652 38.578 19.1811 37.834C15.0969 37.0899 11.4604 34.7912 9.03617 31.4211C6.61195 28.0511 5.58893 23.8724 6.18222 19.7636C6.7755 15.6549 8.93888 11.9362 12.2174 9.38965C15.496 6.84308 19.6342 5.667 23.7621 6.10871C27.8899 6.55042 31.6856 8.57551 34.3511 11.7581L32.0846 13.6563C29.9105 11.0603 26.8144 9.4085 23.4475 9.04821C20.0806 8.68792 16.7051 9.64722 14.0309 11.7244C11.3567 13.8015 9.59208 16.8347 9.10816 20.1861C8.62423 23.5375 9.45868 26.946 11.436 29.6948C13.4134 32.4436 16.3796 34.3186 19.7109 34.9255C23.0422 35.5325 26.4791 34.824 29.2988 32.9491C32.1185 31.0742 34.1014 28.179 34.8305 24.8723C35.5596 21.5655 34.978 18.1049 33.2081 15.2181L35.7285 13.673Z" fill="#25703A"/>
<rect x="18.5205" y="29.8173" width="3.06132" height="5.55217" transform="rotate(33.3501 18.5205 29.8173)" fill="#25703A"/>
<path d="M33.0488 7.61951L35.511 9.43864L32.1109 13.151L30.1027 11.607L33.0488 7.61951Z" fill="#25703A"/>
<path d="M37.2066 4.78912L35.6155 10.7245L31.5956 7.29456L37.2066 4.78912Z" fill="#25703A"/>
<path d="M50.0913 18.5555V8.47554H51.7993L56.4753 15.5805V8.47554H58.1833V18.5555H56.4753L51.7993 11.4505V18.5555H50.0913ZM60.4622 9.84754V8.30054H62.1492V9.84754H60.4622ZM60.4622 18.5555V10.9955H62.1492V18.5555H60.4622ZM66.472 18.5555L63.728 10.9955H65.415L67.319 16.4765L69.216 10.9955H70.91L68.166 18.5555H66.472ZM75.5118 18.7655C74.7465 18.7655 74.0745 18.5999 73.4958 18.2685C72.9172 17.9372 72.4645 17.4775 72.1378 16.8895C71.8158 16.3015 71.6548 15.6249 71.6548 14.8595C71.6548 14.0335 71.8135 13.3172 72.1308 12.7105C72.4482 12.0992 72.8892 11.6255 73.4538 11.2895C74.0185 10.9535 74.6718 10.7855 75.4138 10.7855C76.1978 10.7855 76.8628 10.9699 77.4088 11.3385C77.9595 11.7025 78.3678 12.2182 78.6338 12.8855C78.8998 13.5529 79.0002 14.3392 78.9348 15.2445H77.2618V14.6285C77.2572 13.8072 77.1125 13.2075 76.8278 12.8295C76.5432 12.4515 76.0952 12.2625 75.4838 12.2625C74.7932 12.2625 74.2798 12.4772 73.9438 12.9065C73.6078 13.3312 73.4398 13.9542 73.4398 14.7755C73.4398 15.5409 73.6078 16.1335 73.9438 16.5535C74.2798 16.9735 74.7698 17.1835 75.4138 17.1835C75.8292 17.1835 76.1862 17.0925 76.4848 16.9105C76.7882 16.7239 77.0215 16.4555 77.1848 16.1055L78.8508 16.6095C78.5615 17.2909 78.1135 17.8205 77.5068 18.1985C76.9048 18.5765 76.2398 18.7655 75.5118 18.7655ZM72.9078 15.2445V13.9705H78.1088V15.2445H72.9078ZM83.5977 18.7655C82.6644 18.7655 81.906 18.5555 81.3227 18.1355C80.7394 17.7155 80.3847 17.1252 80.2587 16.3645L81.9807 16.0985C82.0694 16.4719 82.2654 16.7659 82.5687 16.9805C82.872 17.1952 83.2547 17.3025 83.7167 17.3025C84.1227 17.3025 84.4354 17.2232 84.6547 17.0645C84.8787 16.9012 84.9907 16.6795 84.9907 16.3995C84.9907 16.2269 84.9487 16.0892 84.8647 15.9865C84.7854 15.8792 84.608 15.7765 84.3327 15.6785C84.0574 15.5805 83.635 15.4569 83.0657 15.3075C82.431 15.1395 81.927 14.9599 81.5537 14.7685C81.1804 14.5725 80.912 14.3415 80.7487 14.0755C80.5854 13.8095 80.5037 13.4875 80.5037 13.1095C80.5037 12.6382 80.6274 12.2275 80.8747 11.8775C81.122 11.5275 81.4674 11.2592 81.9107 11.0725C82.354 10.8812 82.8767 10.7855 83.4787 10.7855C84.0667 10.7855 84.587 10.8765 85.0397 11.0585C85.497 11.2405 85.8657 11.4995 86.1457 11.8355C86.4257 12.1715 86.5984 12.5659 86.6637 13.0185L84.9417 13.3265C84.8997 13.0045 84.7527 12.7502 84.5007 12.5635C84.2534 12.3769 83.922 12.2719 83.5067 12.2485C83.11 12.2252 82.7904 12.2859 82.5477 12.4305C82.305 12.5705 82.1837 12.7689 82.1837 13.0255C82.1837 13.1702 82.2327 13.2939 82.3307 13.3965C82.4287 13.4992 82.6247 13.6019 82.9187 13.7045C83.2174 13.8072 83.6607 13.9332 84.2487 14.0825C84.8507 14.2365 85.3314 14.4139 85.6907 14.6145C86.0547 14.8105 86.316 15.0462 86.4747 15.3215C86.638 15.5969 86.7197 15.9305 86.7197 16.3225C86.7197 17.0832 86.442 17.6805 85.8867 18.1145C85.336 18.5485 84.573 18.7655 83.5977 18.7655ZM93.6639 18.5555V14.9155C93.6639 14.6775 93.6476 14.4139 93.6149 14.1245C93.5823 13.8352 93.5053 13.5575 93.3839 13.2915C93.2673 13.0209 93.0899 12.7992 92.8519 12.6265C92.6186 12.4539 92.3013 12.3675 91.8999 12.3675C91.6853 12.3675 91.4729 12.4025 91.2629 12.4725C91.0529 12.5425 90.8616 12.6639 90.6889 12.8365C90.5209 13.0045 90.3856 13.2379 90.2829 13.5365C90.1803 13.8305 90.1289 14.2085 90.1289 14.6705L89.1279 14.2435C89.1279 13.5995 89.2516 13.0162 89.4989 12.4935C89.7509 11.9709 90.1196 11.5555 90.6049 11.2475C91.0903 10.9349 91.6876 10.7785 92.3969 10.7785C92.9569 10.7785 93.4189 10.8719 93.7829 11.0585C94.1469 11.2452 94.4363 11.4832 94.6509 11.7725C94.8656 12.0619 95.0243 12.3699 95.1269 12.6965C95.2296 13.0232 95.2949 13.3335 95.3229 13.6275C95.3556 13.9169 95.3719 14.1525 95.3719 14.3345V18.5555H93.6639ZM88.4209 18.5555V8.47554H89.9259V13.7815H90.1289V18.5555H88.4209ZM50.0213 36.5555V27.1955H53.8888C53.9798 27.1955 54.0968 27.1999 54.2398 27.2085C54.3828 27.2129 54.515 27.2259 54.6363 27.2475C55.178 27.3299 55.6243 27.5097 55.9753 27.787C56.3307 28.0644 56.5928 28.4154 56.7618 28.84C56.9352 29.2604 57.0218 29.7284 57.0218 30.244C57.0218 31.0067 56.829 31.6632 56.4433 32.2135C56.0577 32.7595 55.4662 33.0975 54.6688 33.2275L53.9993 33.286H51.5878V36.5555H50.0213ZM55.3968 36.5555L53.5508 32.7465L55.1433 32.3955L57.1713 36.5555H55.3968ZM51.5878 31.8235H53.8238C53.9105 31.8235 54.008 31.8192 54.1163 31.8105C54.2247 31.8019 54.3243 31.7845 54.4153 31.7585C54.6753 31.6935 54.879 31.5787 55.0263 31.414C55.178 31.2494 55.2842 31.063 55.3448 30.855C55.4098 30.647 55.4423 30.4434 55.4423 30.244C55.4423 30.0447 55.4098 29.841 55.3448 29.633C55.2842 29.4207 55.178 29.2322 55.0263 29.0675C54.879 28.9029 54.6753 28.788 54.4153 28.723C54.3243 28.697 54.2247 28.6819 54.1163 28.6775C54.008 28.6689 53.9105 28.6645 53.8238 28.6645H51.5878V31.8235ZM61.9639 36.7505C61.2532 36.7505 60.6292 36.5967 60.0919 36.289C59.5545 35.9814 59.1342 35.5545 58.8309 35.0085C58.5319 34.4625 58.3824 33.8342 58.3824 33.1235C58.3824 32.3565 58.5297 31.6914 58.8244 31.128C59.119 30.5604 59.5285 30.1205 60.0529 29.8085C60.5772 29.4965 61.1839 29.3405 61.8729 29.3405C62.6009 29.3405 63.2184 29.5117 63.7254 29.854C64.2367 30.192 64.6159 30.6709 64.8629 31.2905C65.1099 31.9102 65.203 32.6404 65.1424 33.481H63.5889V32.909C63.5845 32.1464 63.4502 31.5895 63.1859 31.2385C62.9215 30.8875 62.5055 30.712 61.9379 30.712C61.2965 30.712 60.8199 30.9114 60.5079 31.31C60.1959 31.7044 60.0399 32.2829 60.0399 33.0455C60.0399 33.7562 60.1959 34.3065 60.5079 34.6965C60.8199 35.0865 61.2749 35.2815 61.8729 35.2815C62.2585 35.2815 62.59 35.197 62.8674 35.028C63.149 34.8547 63.3657 34.6055 63.5174 34.2805L65.0644 34.7485C64.7957 35.3812 64.3797 35.873 63.8164 36.224C63.2574 36.575 62.6399 36.7505 61.9639 36.7505ZM59.5459 33.481V32.298H64.3754V33.481H59.5459ZM70.8762 36.5555C70.4125 36.6422 69.9575 36.679 69.5112 36.666C69.0692 36.6574 68.6727 36.5772 68.3217 36.4255C67.9707 36.2695 67.7042 36.0247 67.5222 35.691C67.3618 35.3877 67.2773 35.0779 67.2687 34.7615C67.26 34.4452 67.2557 34.0877 67.2557 33.689V27.5855H68.8157V33.598C68.8157 33.8797 68.8178 34.1267 68.8222 34.339C68.8308 34.5514 68.8763 34.7247 68.9587 34.859C69.1147 35.119 69.3638 35.2642 69.7062 35.2945C70.0485 35.3249 70.4385 35.3075 70.8762 35.2425V36.5555ZM65.9817 30.764V29.5355H70.8762V30.764H65.9817ZM75.1872 36.757C74.6672 36.757 74.2382 36.6704 73.9002 36.497C73.5622 36.3237 73.2935 36.1027 73.0942 35.834C72.8949 35.5654 72.7475 35.2794 72.6522 34.976C72.5569 34.6727 72.494 34.3867 72.4637 34.118C72.4377 33.845 72.4247 33.624 72.4247 33.455V29.5355H74.0107V32.9155C74.0107 33.1322 74.0259 33.377 74.0562 33.65C74.0865 33.9187 74.1559 34.1787 74.2642 34.43C74.3769 34.677 74.5415 34.8807 74.7582 35.041C74.9792 35.2014 75.276 35.2815 75.6487 35.2815C75.848 35.2815 76.0452 35.249 76.2402 35.184C76.4352 35.119 76.6107 35.0085 76.7667 34.8525C76.927 34.6922 77.0549 34.4734 77.1502 34.196C77.2455 33.9187 77.2932 33.5677 77.2932 33.143L78.2227 33.5395C78.2227 34.1375 78.1057 34.6792 77.8717 35.1645C77.642 35.6499 77.3019 36.0377 76.8512 36.328C76.4005 36.614 75.8459 36.757 75.1872 36.757ZM77.4817 36.5555V34.378H77.2932V29.5355H78.8662V36.5555H77.4817ZM80.8614 36.5555V29.5355H82.2459V31.245L82.0769 31.024C82.1636 30.79 82.2784 30.5777 82.4214 30.387C82.5687 30.192 82.7442 30.0317 82.9479 29.906C83.1212 29.789 83.3119 29.698 83.5199 29.633C83.7322 29.5637 83.9489 29.5225 84.1699 29.5095C84.3909 29.4922 84.6054 29.5009 84.8134 29.5355V30.998C84.6054 30.9374 84.3649 30.9179 84.0919 30.9395C83.8232 30.9612 83.5806 31.037 83.3639 31.167C83.1472 31.284 82.9696 31.4335 82.8309 31.6155C82.6966 31.7975 82.5969 32.0055 82.5319 32.2395C82.4669 32.4692 82.4344 32.7184 82.4344 32.987V36.5555H80.8614ZM91.0783 36.5555V33.1755C91.0783 32.9545 91.0631 32.7097 91.0328 32.441C91.0024 32.1724 90.9309 31.9145 90.8183 31.6675C90.7099 31.4162 90.5453 31.2104 90.3243 31.05C90.1076 30.8897 89.8129 30.8095 89.4403 30.8095C89.2409 30.8095 89.0438 30.842 88.8488 30.907C88.6538 30.972 88.4761 31.0847 88.3158 31.245C88.1598 31.401 88.0341 31.6177 87.9388 31.895C87.8434 32.168 87.7958 32.519 87.7958 32.948L86.8663 32.5515C86.8663 31.9535 86.9811 31.4119 87.2108 30.9265C87.4448 30.4412 87.7871 30.0555 88.2378 29.7695C88.6884 29.4792 89.2431 29.334 89.9018 29.334C90.4218 29.334 90.8508 29.4207 91.1888 29.594C91.5268 29.7674 91.7954 29.9884 91.9948 30.257C92.1941 30.5257 92.3414 30.8117 92.4368 31.115C92.5321 31.4184 92.5928 31.7065 92.6188 31.9795C92.6491 32.2482 92.6643 32.467 92.6643 32.636V36.5555H91.0783ZM86.2098 36.5555V29.5355H87.6073V31.713H87.7958V36.5555H86.2098ZM97.24 36.7505C96.3733 36.7505 95.6691 36.5555 95.1275 36.1655C94.5858 35.7755 94.2565 35.2274 94.1395 34.521L95.7385 34.274C95.8208 34.6207 96.0028 34.8937 96.2845 35.093C96.5661 35.2924 96.9215 35.392 97.3505 35.392C97.7275 35.392 98.0178 35.3184 98.2215 35.171C98.4295 35.0194 98.5335 34.8135 98.5335 34.5535C98.5335 34.3932 98.4945 34.2654 98.4165 34.17C98.3428 34.0704 98.1781 33.975 97.9225 33.884C97.6668 33.793 97.2746 33.6782 96.746 33.5395C96.1566 33.3835 95.6886 33.2167 95.342 33.039C94.9953 32.857 94.7461 32.6425 94.5945 32.3955C94.4428 32.1485 94.367 31.8495 94.367 31.4985C94.367 31.0609 94.4818 30.6795 94.7115 30.3545C94.9411 30.0295 95.2618 29.7804 95.6735 29.607C96.0851 29.4294 96.5705 29.3405 97.1295 29.3405C97.6755 29.3405 98.1586 29.425 98.579 29.594C99.0036 29.763 99.346 30.0035 99.606 30.3155C99.866 30.6275 100.026 30.9937 100.087 31.414L98.488 31.7C98.449 31.401 98.3125 31.1649 98.0785 30.9915C97.8488 30.8182 97.5411 30.7207 97.1555 30.699C96.7871 30.6774 96.4903 30.7337 96.265 30.868C96.0396 30.998 95.927 31.1822 95.927 31.4205C95.927 31.5549 95.9725 31.6697 96.0635 31.765C96.1545 31.8604 96.3365 31.9557 96.6095 32.051C96.8868 32.1464 97.2985 32.2634 97.8445 32.402C98.4035 32.545 98.8498 32.7097 99.1835 32.896C99.5215 33.078 99.7641 33.2969 99.9115 33.5525C100.063 33.8082 100.139 34.118 100.139 34.482C100.139 35.1884 99.8811 35.743 99.3655 36.146C98.8541 36.549 98.1456 36.7505 97.24 36.7505Z" fill="#191A15"/>
</svg>
