<svg width="24" height="25" viewBox="0 0 24 25" fill="none" xmlns="http://www.w3.org/2000/svg">
<path fill-rule="evenodd" clip-rule="evenodd" d="M3.88534 5.34831C3.20538 5.97969 2.75 7.00416 2.75 8.61121V15.6112C2.75 17.2182 3.20538 18.2427 3.88534 18.8741C4.57535 19.5148 5.61497 19.8612 7 19.8612H17C18.385 19.8612 19.4246 19.5148 20.1147 18.8741C20.7946 18.2427 21.25 17.2182 21.25 15.6112V8.61121C21.25 7.00416 20.7946 5.97969 20.1147 5.34831C19.4246 4.70758 18.385 4.36121 17 4.36121H7C5.61497 4.36121 4.57535 4.70758 3.88534 5.34831ZM2.86466 4.24911C3.92465 3.26484 5.38503 2.86121 7 2.86121H17C18.615 2.86121 20.0754 3.26484 21.1353 4.24911C22.2054 5.24273 22.75 6.71826 22.75 8.61121V15.6112C22.75 17.5042 22.2054 18.9797 21.1353 19.9733C20.0754 20.9576 18.615 21.3612 17 21.3612H7C5.38503 21.3612 3.92465 20.9576 2.86466 19.9733C1.79462 18.9797 1.25 17.5042 1.25 15.6112V8.61121C1.25 6.71826 1.79462 5.24273 2.86466 4.24911Z" fill="#595959"/>
<path fill-rule="evenodd" clip-rule="evenodd" d="M19.3628 7.42147C19.6161 7.74923 19.5557 8.22025 19.228 8.47351L13.6809 12.7598C12.6905 13.525 11.3084 13.525 10.318 12.7598L4.77095 8.47351C4.44318 8.22025 4.38279 7.74923 4.63606 7.42147C4.88933 7.0937 5.36034 7.03331 5.68811 7.28658L11.2351 11.5728C11.6853 11.9207 12.3136 11.9207 12.7637 11.5728L18.3108 7.28658C18.6386 7.03331 19.1096 7.0937 19.3628 7.42147Z" fill="#595959"/>
</svg>
