<svg width="16" height="16" viewBox="0 0 16 16" fill="none" xmlns="http://www.w3.org/2000/svg">
<g clip-path="url(#clip0_78_1267)">
<path d="M8.00006 10.6668C7.29281 10.6668 6.61454 10.3859 6.11444 9.88577C5.61434 9.38567 5.33339 8.70739 5.33339 8.00015C5.33339 7.2929 5.61434 6.61462 6.11444 6.11453C6.61454 5.61443 7.29281 5.33348 8.00006 5.33348C8.7073 5.33348 9.38558 5.61443 9.88568 6.11453C10.3858 6.61462 10.6667 7.2929 10.6667 8.00015C10.6667 8.70739 10.3858 9.38567 9.88568 9.88577C9.38558 10.3859 8.7073 10.6668 8.00006 10.6668ZM8.00006 6.66681C7.64644 6.66681 7.3073 6.80729 7.05725 7.05734C6.8072 7.30739 6.66673 7.64652 6.66673 8.00015C6.66673 8.35377 6.8072 8.69291 7.05725 8.94296C7.3073 9.193 7.64644 9.33348 8.00006 9.33348C8.35368 9.33348 8.69282 9.193 8.94287 8.94296C9.19292 8.69291 9.33339 8.35377 9.33339 8.00015C9.33339 7.64652 9.19292 7.30739 8.94287 7.05734C8.69282 6.80729 8.35368 6.66681 8.00006 6.66681ZM8.00006 16.0001C7.27283 15.9994 6.56575 15.7612 5.98633 15.3217C5.40691 14.8822 4.98686 14.2656 4.79006 13.5655C4.08651 13.7208 3.35173 13.6475 2.69277 13.3561C2.0338 13.0648 1.48509 12.5706 1.12655 11.9457C0.768018 11.3207 0.6184 10.5976 0.699493 9.88166C0.780587 9.16574 1.08816 8.49441 1.57739 7.96548C-0.689275 5.62481 1.58339 1.56548 4.80006 2.39948C5.00755 1.71225 5.43076 1.11008 6.00708 0.682065C6.58339 0.254054 7.28219 0.0229492 8.00006 0.0229492C8.71793 0.0229492 9.41672 0.254054 9.99304 0.682065C10.5694 1.11008 10.9926 1.71225 11.2001 2.39948C14.4667 1.58881 16.6667 5.60815 14.4194 7.99415C16.6914 10.3528 14.4267 14.2888 11.2101 13.5655C11.0133 14.2656 10.5932 14.8822 10.0138 15.3217C9.43437 15.7612 8.72728 15.9994 8.00006 16.0001ZM5.33339 12.0001C5.5102 12.0001 5.67977 12.0704 5.8048 12.1954C5.92982 12.3204 6.00006 12.49 6.00006 12.6668C6.00006 13.1972 6.21077 13.706 6.58584 14.081C6.96092 14.4561 7.46963 14.6668 8.00006 14.6668C8.53049 14.6668 9.0392 14.4561 9.41427 14.081C9.78935 13.706 10.0001 13.1972 10.0001 12.6668C10 12.5494 10.031 12.434 10.0898 12.3324C10.1487 12.2307 10.2334 12.1465 10.3353 12.0881C10.4372 12.0297 10.5527 11.9992 10.6701 11.9998C10.7876 12.0004 10.9028 12.0321 11.0041 12.0915C13.3147 13.2081 15.2707 9.97015 13.0147 8.58548C12.9106 8.52726 12.8239 8.44232 12.7636 8.33943C12.7032 8.23654 12.6714 8.11942 12.6714 8.00015C12.6714 7.88087 12.7032 7.76375 12.7636 7.66086C12.8239 7.55797 12.9106 7.47304 13.0147 7.41481C15.2234 6.07548 13.3627 2.60215 11.0021 3.91215C10.9006 3.97121 10.7853 4.00243 10.6678 4.00262C10.5504 4.00282 10.435 3.972 10.3333 3.91327C10.2316 3.85454 10.1473 3.76999 10.0887 3.66818C10.0302 3.56637 9.99962 3.45091 10.0001 3.33348C10.0001 2.80305 9.78935 2.29434 9.41427 1.91927C9.0392 1.54419 8.53049 1.33348 8.00006 1.33348C7.46963 1.33348 6.96092 1.54419 6.58584 1.91927C6.21077 2.29434 6.00006 2.80305 6.00006 3.33348C6.00029 3.45062 5.96965 3.56574 5.91124 3.66727C5.85282 3.7688 5.76868 3.85315 5.6673 3.91182C5.56591 3.97049 5.45086 4.00141 5.33372 4.00146C5.21659 4.00152 5.1015 3.97071 5.00006 3.91215C2.66673 2.60548 0.758725 6.05348 2.98539 7.38015C3.08948 7.43847 3.17614 7.52347 3.23646 7.62641C3.29678 7.72935 3.32857 7.8465 3.32857 7.96581C3.32857 8.08512 3.29678 8.20228 3.23646 8.30522C3.17614 8.40816 3.08948 8.49316 2.98539 8.55148C0.753392 9.96015 2.64273 13.2001 4.99606 12.0915C5.09838 12.0316 5.21483 12.0001 5.33339 12.0001Z" fill="#838894"/>
</g>
<defs>
<clipPath id="clip0_78_1267">
<rect width="16" height="16" fill="white"/>
</clipPath>
</defs>
</svg>
