<svg width="102" height="45" viewBox="0 0 102 45" fill="none" xmlns="http://www.w3.org/2000/svg">
<path d="M23.1992 17.5625C22.7052 16.5217 21.6467 15.7984 20.4118 15.7984H16.4424V14.0342H27.0275V15.7984H24.1518C24.5753 16.31 24.8928 16.9098 25.078 17.5625H27.0275V19.3267H25.2456C25.0251 21.7966 22.9434 23.7372 20.4118 23.7372H19.7679L25.7043 29.9118H23.2609L17.3245 23.7372V21.973H20.4118C21.9643 21.973 23.2521 20.8263 23.4638 19.3267H16.4424V17.5625H23.1992Z" fill="white"/>
<path d="M35.7285 13.6728C37.8983 17.212 38.6113 21.4547 37.7174 25.5087C36.8236 29.5627 34.3926 33.1122 30.9357 35.4107C27.4788 37.7093 23.2652 38.5779 19.1811 37.8338C15.0969 37.0898 11.4604 34.791 9.03617 31.421C6.61195 28.051 5.58893 23.8723 6.18222 19.7635C6.7755 15.6547 8.93888 11.9361 12.2174 9.38953C15.496 6.84296 19.6342 5.66688 23.7621 6.10859C27.8899 6.5503 31.6856 8.57539 34.3511 11.758L32.0846 13.6562C29.9105 11.0602 26.8144 9.40838 23.4475 9.04809C20.0806 8.6878 16.7051 9.64709 14.0309 11.7243C11.3567 13.8014 9.59208 16.8346 9.10816 20.186C8.62423 23.5374 9.45868 26.9459 11.436 29.6947C13.4134 32.4435 16.3796 34.3185 19.7109 34.9254C23.0422 35.5323 26.4791 34.8239 29.2988 32.949C32.1185 31.0741 34.1014 28.1789 34.8305 24.8722C35.5596 21.5654 34.978 18.1048 33.2081 15.218L35.7285 13.6728Z" fill="white"/>
<rect x="18.5205" y="29.8171" width="3.06132" height="5.55217" transform="rotate(33.3501 18.5205 29.8171)" fill="white"/>
<path d="M33.0488 7.61963L35.511 9.43876L32.1109 13.1512L30.1027 11.6072L33.0488 7.61963Z" fill="white"/>
<path d="M37.2066 4.78912L35.6155 10.7245L31.5956 7.29456L37.2066 4.78912Z" fill="white"/>
<path d="M50.0913 18.5557V8.47566H51.7993L56.4753 15.5807V8.47566H58.1833V18.5557H56.4753L51.7993 11.4507V18.5557H50.0913ZM60.4622 9.84766V8.30066H62.1492V9.84766H60.4622ZM60.4622 18.5557V10.9957H62.1492V18.5557H60.4622ZM66.472 18.5557L63.728 10.9957H65.415L67.319 16.4767L69.216 10.9957H70.91L68.166 18.5557H66.472ZM75.5118 18.7657C74.7465 18.7657 74.0745 18.6 73.4958 18.2687C72.9172 17.9373 72.4645 17.4777 72.1378 16.8897C71.8158 16.3017 71.6548 15.625 71.6548 14.8597C71.6548 14.0337 71.8135 13.3173 72.1308 12.7107C72.4482 12.0993 72.8892 11.6257 73.4538 11.2897C74.0185 10.9537 74.6718 10.7857 75.4138 10.7857C76.1978 10.7857 76.8628 10.97 77.4088 11.3387C77.9595 11.7027 78.3678 12.2183 78.6338 12.8857C78.8998 13.553 79.0002 14.3393 78.9348 15.2447H77.2618V14.6287C77.2572 13.8073 77.1125 13.2077 76.8278 12.8297C76.5432 12.4517 76.0952 12.2627 75.4838 12.2627C74.7932 12.2627 74.2798 12.4773 73.9438 12.9067C73.6078 13.3313 73.4398 13.9543 73.4398 14.7757C73.4398 15.541 73.6078 16.1337 73.9438 16.5537C74.2798 16.9737 74.7698 17.1837 75.4138 17.1837C75.8292 17.1837 76.1862 17.0927 76.4848 16.9107C76.7882 16.724 77.0215 16.4557 77.1848 16.1057L78.8508 16.6097C78.5615 17.291 78.1135 17.8207 77.5068 18.1987C76.9048 18.5767 76.2398 18.7657 75.5118 18.7657ZM72.9078 15.2447V13.9707H78.1088V15.2447H72.9078ZM83.5977 18.7657C82.6644 18.7657 81.906 18.5557 81.3227 18.1357C80.7394 17.7157 80.3847 17.1253 80.2587 16.3647L81.9807 16.0987C82.0694 16.472 82.2654 16.766 82.5687 16.9807C82.872 17.1953 83.2547 17.3027 83.7167 17.3027C84.1227 17.3027 84.4354 17.2233 84.6547 17.0647C84.8787 16.9013 84.9907 16.6797 84.9907 16.3997C84.9907 16.227 84.9487 16.0893 84.8647 15.9867C84.7854 15.8793 84.608 15.7767 84.3327 15.6787C84.0574 15.5807 83.635 15.457 83.0657 15.3077C82.431 15.1397 81.927 14.96 81.5537 14.7687C81.1804 14.5727 80.912 14.3417 80.7487 14.0757C80.5854 13.8097 80.5037 13.4877 80.5037 13.1097C80.5037 12.6383 80.6274 12.2277 80.8747 11.8777C81.122 11.5277 81.4674 11.2593 81.9107 11.0727C82.354 10.8813 82.8767 10.7857 83.4787 10.7857C84.0667 10.7857 84.587 10.8767 85.0397 11.0587C85.497 11.2407 85.8657 11.4997 86.1457 11.8357C86.4257 12.1717 86.5984 12.566 86.6637 13.0187L84.9417 13.3267C84.8997 13.0047 84.7527 12.7503 84.5007 12.5637C84.2534 12.377 83.922 12.272 83.5067 12.2487C83.11 12.2253 82.7904 12.286 82.5477 12.4307C82.305 12.5707 82.1837 12.769 82.1837 13.0257C82.1837 13.1703 82.2327 13.294 82.3307 13.3967C82.4287 13.4993 82.6247 13.602 82.9187 13.7047C83.2174 13.8073 83.6607 13.9333 84.2487 14.0827C84.8507 14.2367 85.3314 14.414 85.6907 14.6147C86.0547 14.8107 86.316 15.0463 86.4747 15.3217C86.638 15.597 86.7197 15.9307 86.7197 16.3227C86.7197 17.0833 86.442 17.6807 85.8867 18.1147C85.336 18.5487 84.573 18.7657 83.5977 18.7657ZM93.6639 18.5557V14.9157C93.6639 14.6777 93.6476 14.414 93.6149 14.1247C93.5823 13.8353 93.5053 13.5577 93.3839 13.2917C93.2673 13.021 93.0899 12.7993 92.8519 12.6267C92.6186 12.454 92.3013 12.3677 91.8999 12.3677C91.6853 12.3677 91.4729 12.4027 91.2629 12.4727C91.0529 12.5427 90.8616 12.664 90.6889 12.8367C90.5209 13.0047 90.3856 13.238 90.2829 13.5367C90.1803 13.8307 90.1289 14.2087 90.1289 14.6707L89.1279 14.2437C89.1279 13.5997 89.2516 13.0163 89.4989 12.4937C89.7509 11.971 90.1196 11.5557 90.6049 11.2477C91.0903 10.935 91.6876 10.7787 92.3969 10.7787C92.9569 10.7787 93.4189 10.872 93.7829 11.0587C94.1469 11.2453 94.4363 11.4833 94.6509 11.7727C94.8656 12.062 95.0243 12.37 95.1269 12.6967C95.2296 13.0233 95.2949 13.3337 95.3229 13.6277C95.3556 13.917 95.3719 14.1527 95.3719 14.3347V18.5557H93.6639ZM88.4209 18.5557V8.47566H89.9259V13.7817H90.1289V18.5557H88.4209ZM50.0213 36.5557V27.1957H53.8888C53.9798 27.1957 54.0968 27.2 54.2398 27.2087C54.3828 27.213 54.515 27.226 54.6363 27.2477C55.178 27.33 55.6243 27.5098 55.9753 27.7872C56.3307 28.0645 56.5928 28.4155 56.7618 28.8402C56.9352 29.2605 57.0218 29.7285 57.0218 30.2442C57.0218 31.0068 56.829 31.6633 56.4433 32.2137C56.0577 32.7597 55.4662 33.0977 54.6688 33.2277L53.9993 33.2862H51.5878V36.5557H50.0213ZM55.3968 36.5557L53.5508 32.7467L55.1433 32.3957L57.1713 36.5557H55.3968ZM51.5878 31.8237H53.8238C53.9105 31.8237 54.008 31.8193 54.1163 31.8107C54.2247 31.802 54.3243 31.7847 54.4153 31.7587C54.6753 31.6937 54.879 31.5788 55.0263 31.4142C55.178 31.2495 55.2842 31.0632 55.3448 30.8552C55.4098 30.6472 55.4423 30.4435 55.4423 30.2442C55.4423 30.0448 55.4098 29.8412 55.3448 29.6332C55.2842 29.4208 55.178 29.2323 55.0263 29.0677C54.879 28.903 54.6753 28.7882 54.4153 28.7232C54.3243 28.6972 54.2247 28.682 54.1163 28.6777C54.008 28.669 53.9105 28.6647 53.8238 28.6647H51.5878V31.8237ZM61.9639 36.7507C61.2532 36.7507 60.6292 36.5968 60.0919 36.2892C59.5545 35.9815 59.1342 35.5547 58.8309 35.0087C58.5319 34.4627 58.3824 33.8343 58.3824 33.1237C58.3824 32.3567 58.5297 31.6915 58.8244 31.1282C59.119 30.5605 59.5285 30.1207 60.0529 29.8087C60.5772 29.4967 61.1839 29.3407 61.8729 29.3407C62.6009 29.3407 63.2184 29.5118 63.7254 29.8542C64.2367 30.1922 64.6159 30.671 64.8629 31.2907C65.1099 31.9103 65.203 32.6405 65.1424 33.4812H63.5889V32.9092C63.5845 32.1465 63.4502 31.5897 63.1859 31.2387C62.9215 30.8877 62.5055 30.7122 61.9379 30.7122C61.2965 30.7122 60.8199 30.9115 60.5079 31.3102C60.1959 31.7045 60.0399 32.283 60.0399 33.0457C60.0399 33.7563 60.1959 34.3067 60.5079 34.6967C60.8199 35.0867 61.2749 35.2817 61.8729 35.2817C62.2585 35.2817 62.59 35.1972 62.8674 35.0282C63.149 34.8548 63.3657 34.6057 63.5174 34.2807L65.0644 34.7487C64.7957 35.3813 64.3797 35.8732 63.8164 36.2242C63.2574 36.5752 62.6399 36.7507 61.9639 36.7507ZM59.5459 33.4812V32.2982H64.3754V33.4812H59.5459ZM70.8762 36.5557C70.4125 36.6423 69.9575 36.6792 69.5112 36.6662C69.0692 36.6575 68.6727 36.5773 68.3217 36.4257C67.9707 36.2697 67.7042 36.0248 67.5222 35.6912C67.3618 35.3878 67.2773 35.078 67.2687 34.7617C67.26 34.4453 67.2557 34.0878 67.2557 33.6892V27.5857H68.8157V33.5982C68.8157 33.8798 68.8178 34.1268 68.8222 34.3392C68.8308 34.5515 68.8763 34.7248 68.9587 34.8592C69.1147 35.1192 69.3638 35.2643 69.7062 35.2947C70.0485 35.325 70.4385 35.3077 70.8762 35.2427V36.5557ZM65.9817 30.7642V29.5357H70.8762V30.7642H65.9817ZM75.1872 36.7572C74.6672 36.7572 74.2382 36.6705 73.9002 36.4972C73.5622 36.3238 73.2935 36.1028 73.0942 35.8342C72.8949 35.5655 72.7475 35.2795 72.6522 34.9762C72.5569 34.6728 72.494 34.3868 72.4637 34.1182C72.4377 33.8452 72.4247 33.6242 72.4247 33.4552V29.5357H74.0107V32.9157C74.0107 33.1323 74.0259 33.3772 74.0562 33.6502C74.0865 33.9188 74.1559 34.1788 74.2642 34.4302C74.3769 34.6772 74.5415 34.8808 74.7582 35.0412C74.9792 35.2015 75.276 35.2817 75.6487 35.2817C75.848 35.2817 76.0452 35.2492 76.2402 35.1842C76.4352 35.1192 76.6107 35.0087 76.7667 34.8527C76.927 34.6923 77.0549 34.4735 77.1502 34.1962C77.2455 33.9188 77.2932 33.5678 77.2932 33.1432L78.2227 33.5397C78.2227 34.1377 78.1057 34.6793 77.8717 35.1647C77.642 35.65 77.3019 36.0378 76.8512 36.3282C76.4005 36.6142 75.8459 36.7572 75.1872 36.7572ZM77.4817 36.5557V34.3782H77.2932V29.5357H78.8662V36.5557H77.4817ZM80.8614 36.5557V29.5357H82.2459V31.2452L82.0769 31.0242C82.1636 30.7902 82.2784 30.5778 82.4214 30.3872C82.5687 30.1922 82.7442 30.0318 82.9479 29.9062C83.1212 29.7892 83.3119 29.6982 83.5199 29.6332C83.7322 29.5638 83.9489 29.5227 84.1699 29.5097C84.3909 29.4923 84.6054 29.501 84.8134 29.5357V30.9982C84.6054 30.9375 84.3649 30.918 84.0919 30.9397C83.8232 30.9613 83.5806 31.0372 83.3639 31.1672C83.1472 31.2842 82.9696 31.4337 82.8309 31.6157C82.6966 31.7977 82.5969 32.0057 82.5319 32.2397C82.4669 32.4693 82.4344 32.7185 82.4344 32.9872V36.5557H80.8614ZM91.0783 36.5557V33.1757C91.0783 32.9547 91.0631 32.7098 91.0328 32.4412C91.0024 32.1725 90.9309 31.9147 90.8183 31.6677C90.7099 31.4163 90.5453 31.2105 90.3243 31.0502C90.1076 30.8898 89.8129 30.8097 89.4403 30.8097C89.2409 30.8097 89.0438 30.8422 88.8488 30.9072C88.6538 30.9722 88.4761 31.0848 88.3158 31.2452C88.1598 31.4012 88.0341 31.6178 87.9388 31.8952C87.8434 32.1682 87.7958 32.5192 87.7958 32.9482L86.8663 32.5517C86.8663 31.9537 86.9811 31.412 87.2108 30.9267C87.4448 30.4413 87.7871 30.0557 88.2378 29.7697C88.6884 29.4793 89.2431 29.3342 89.9018 29.3342C90.4218 29.3342 90.8508 29.4208 91.1888 29.5942C91.5268 29.7675 91.7954 29.9885 91.9948 30.2572C92.1941 30.5258 92.3414 30.8118 92.4368 31.1152C92.5321 31.4185 92.5928 31.7067 92.6188 31.9797C92.6491 32.2483 92.6643 32.4672 92.6643 32.6362V36.5557H91.0783ZM86.2098 36.5557V29.5357H87.6073V31.7132H87.7958V36.5557H86.2098ZM97.24 36.7507C96.3733 36.7507 95.6691 36.5557 95.1275 36.1657C94.5858 35.7757 94.2565 35.2275 94.1395 34.5212L95.7385 34.2742C95.8208 34.6208 96.0028 34.8938 96.2845 35.0932C96.5661 35.2925 96.9215 35.3922 97.3505 35.3922C97.7275 35.3922 98.0178 35.3185 98.2215 35.1712C98.4295 35.0195 98.5335 34.8137 98.5335 34.5537C98.5335 34.3933 98.4945 34.2655 98.4165 34.1702C98.3428 34.0705 98.1781 33.9752 97.9225 33.8842C97.6668 33.7932 97.2746 33.6783 96.746 33.5397C96.1566 33.3837 95.6886 33.2168 95.342 33.0392C94.9953 32.8572 94.7461 32.6427 94.5945 32.3957C94.4428 32.1487 94.367 31.8497 94.367 31.4987C94.367 31.061 94.4818 30.6797 94.7115 30.3547C94.9411 30.0297 95.2618 29.7805 95.6735 29.6072C96.0851 29.4295 96.5705 29.3407 97.1295 29.3407C97.6755 29.3407 98.1586 29.4252 98.579 29.5942C99.0036 29.7632 99.346 30.0037 99.606 30.3157C99.866 30.6277 100.026 30.9938 100.087 31.4142L98.488 31.7002C98.449 31.4012 98.3125 31.165 98.0785 30.9917C97.8488 30.8183 97.5411 30.7208 97.1555 30.6992C96.7871 30.6775 96.4903 30.7338 96.265 30.8682C96.0396 30.9982 95.927 31.1823 95.927 31.4207C95.927 31.555 95.9725 31.6698 96.0635 31.7652C96.1545 31.8605 96.3365 31.9558 96.6095 32.0512C96.8868 32.1465 97.2985 32.2635 97.8445 32.4022C98.4035 32.5452 98.8498 32.7098 99.1835 32.8962C99.5215 33.0782 99.7641 33.297 99.9115 33.5527C100.063 33.8083 100.139 34.1182 100.139 34.4822C100.139 35.1885 99.8811 35.7432 99.3655 36.1462C98.8541 36.5492 98.1456 36.7507 97.24 36.7507Z" fill="white"/>
</svg>
