<svg width="32" height="33" viewBox="0 0 32 33" fill="none" xmlns="http://www.w3.org/2000/svg">
<g clip-path="url(#clip0_42_5274)">
<path d="M26.7368 24.0787V25.3419C26.7368 26.7313 25.6 27.8682 24.2105 27.8682H6.52632C5.12421 27.8682 4 26.7313 4 25.3419V7.65766C4 6.26819 5.12421 5.13135 6.52632 5.13135H24.2105C25.6 5.13135 26.7368 6.26819 26.7368 7.65766V8.92082H15.3684C13.9663 8.92082 12.8421 10.0577 12.8421 11.4471V21.5524C12.8421 22.9419 13.9663 24.0787 15.3684 24.0787H26.7368ZM15.3684 21.5524H28V11.4471H15.3684V21.5524ZM20.4211 18.3945C19.3726 18.3945 18.5263 17.5482 18.5263 16.4998C18.5263 15.4513 19.3726 14.605 20.4211 14.605C21.4695 14.605 22.3158 15.4513 22.3158 16.4998C22.3158 17.5482 21.4695 18.3945 20.4211 18.3945Z" fill="#171717"/>
</g>
<defs>
<clipPath id="clip0_42_5274">
<rect width="32" height="32" fill="white" transform="translate(0 0.5)"/>
</clipPath>
</defs>
</svg>
