<svg width="24" height="25" viewBox="0 0 24 25" fill="none" xmlns="http://www.w3.org/2000/svg">
<path fill-rule="evenodd" clip-rule="evenodd" d="M11.9015 3.34951L2.90854 6.94666L2.63 6.2503L2.90854 6.94666C2.90869 6.9466 2.90526 6.94797 2.89866 6.95208C2.89207 6.95618 2.8832 6.96246 2.87268 6.97151C2.85102 6.99012 2.82727 7.01619 2.80565 7.04826C2.78403 7.08034 2.76872 7.11222 2.75954 7.13931C2.75079 7.16513 2.75006 7.17915 2.75 7.18026C2.75 7.18034 2.75 7.18035 2.75 7.1803V10.5003C2.75 10.6361 2.86421 10.7503 3 10.7503H21C21.1358 10.7503 21.25 10.6361 21.25 10.5003V7.1803C21.25 7.18035 21.25 7.18034 21.25 7.18026C21.2499 7.17915 21.2492 7.16513 21.2405 7.13931C21.2313 7.11222 21.216 7.08034 21.1943 7.04826C21.1727 7.01619 21.149 6.99012 21.1273 6.97151C21.1168 6.96246 21.1079 6.95618 21.1013 6.95208C21.0947 6.94797 21.0913 6.9466 21.0915 6.94666L12.0985 3.34951C12.0957 3.34883 12.0899 3.34753 12.0808 3.34609C12.0598 3.34277 12.0317 3.34033 12 3.34033C11.9683 3.34033 11.9402 3.34277 11.9192 3.34609C11.9101 3.34753 11.9043 3.34883 11.9015 3.34951ZM12 1.84033C12.1938 1.84033 12.4313 1.86708 12.6485 1.95397L21.6485 5.55394L21.3759 6.23549L21.6485 5.55394C21.9916 5.69115 22.2592 5.94435 22.4382 6.20984C22.6169 6.47499 22.75 6.81592 22.75 7.1803V10.5003C22.75 11.4646 21.9642 12.2503 21 12.2503H3C2.03579 12.2503 1.25 11.4646 1.25 10.5003V7.1803C1.25 6.81592 1.38312 6.47499 1.56185 6.20984C1.74081 5.94435 2.00845 5.69115 2.35146 5.55394L2.35146 5.55394L11.3515 1.95397C11.5687 1.86708 11.8062 1.84033 12 1.84033Z" fill="#171717"/>
<path fill-rule="evenodd" clip-rule="evenodd" d="M3 19.25C2.86421 19.25 2.75 19.3642 2.75 19.5V21.75H21.25V19.5C21.25 19.3642 21.1358 19.25 21 19.25H3ZM1.25 19.5C1.25 18.5358 2.03579 17.75 3 17.75H21C21.9642 17.75 22.75 18.5358 22.75 19.5V22.5C22.75 22.9142 22.4142 23.25 22 23.25H2C1.58579 23.25 1.25 22.9142 1.25 22.5V19.5Z" fill="#171717"/>
<path fill-rule="evenodd" clip-rule="evenodd" d="M4 10.75C4.41421 10.75 4.75 11.0858 4.75 11.5V18.5C4.75 18.9142 4.41421 19.25 4 19.25C3.58579 19.25 3.25 18.9142 3.25 18.5V11.5C3.25 11.0858 3.58579 10.75 4 10.75Z" fill="#171717"/>
<path fill-rule="evenodd" clip-rule="evenodd" d="M8 10.75C8.41421 10.75 8.75 11.0858 8.75 11.5V18.5C8.75 18.9142 8.41421 19.25 8 19.25C7.58579 19.25 7.25 18.9142 7.25 18.5V11.5C7.25 11.0858 7.58579 10.75 8 10.75Z" fill="#171717"/>
<path fill-rule="evenodd" clip-rule="evenodd" d="M12 10.75C12.4142 10.75 12.75 11.0858 12.75 11.5V18.5C12.75 18.9142 12.4142 19.25 12 19.25C11.5858 19.25 11.25 18.9142 11.25 18.5V11.5C11.25 11.0858 11.5858 10.75 12 10.75Z" fill="#171717"/>
<path fill-rule="evenodd" clip-rule="evenodd" d="M16 10.75C16.4142 10.75 16.75 11.0858 16.75 11.5V18.5C16.75 18.9142 16.4142 19.25 16 19.25C15.5858 19.25 15.25 18.9142 15.25 18.5V11.5C15.25 11.0858 15.5858 10.75 16 10.75Z" fill="#171717"/>
<path fill-rule="evenodd" clip-rule="evenodd" d="M20 10.75C20.4142 10.75 20.75 11.0858 20.75 11.5V18.5C20.75 18.9142 20.4142 19.25 20 19.25C19.5858 19.25 19.25 18.9142 19.25 18.5V11.5C19.25 11.0858 19.5858 10.75 20 10.75Z" fill="#171717"/>
<path fill-rule="evenodd" clip-rule="evenodd" d="M0.25 22.5C0.25 22.0858 0.585786 21.75 1 21.75H23C23.4142 21.75 23.75 22.0858 23.75 22.5C23.75 22.9142 23.4142 23.25 23 23.25H1C0.585786 23.25 0.25 22.9142 0.25 22.5Z" fill="#171717"/>
<path fill-rule="evenodd" clip-rule="evenodd" d="M9.75 7.5C9.75 6.25735 10.7574 5.25 12 5.25C13.2426 5.25 14.25 6.25735 14.25 7.5C14.25 8.74265 13.2426 9.75 12 9.75C10.7574 9.75 9.75 8.74265 9.75 7.5ZM12 6.75C11.5858 6.75 11.25 7.08579 11.25 7.5C11.25 7.91421 11.5858 8.25 12 8.25C12.4142 8.25 12.75 7.91421 12.75 7.5C12.75 7.08579 12.4142 6.75 12 6.75Z" fill="#171717"/>
</svg>
