<svg width="24" height="25" viewBox="0 0 24 25" fill="none" xmlns="http://www.w3.org/2000/svg">
<g clip-path="url(#clip0_42_5293)">
<path d="M9.75 20.501C9.74938 19.8961 9.94831 19.3078 10.316 18.8274C10.6836 18.3471 11.1995 18.0013 11.7835 17.8439C12.3676 17.6865 12.9873 17.7261 13.5466 17.9566C14.1059 18.1871 14.5735 18.5957 14.877 19.119C16.967 18.197 17.75 16.75 17.75 14V11C17.75 7.008 15.499 4.25 12 4.25C8.501 4.25 6.25 7.009 6.25 11V14.5C6.24974 14.6988 6.17063 14.8894 6.03004 15.03C5.88944 15.1706 5.69883 15.2497 5.5 15.25H4.5C3.77107 15.2492 3.07221 14.9594 2.55669 14.444C2.04116 13.9287 1.75106 13.2299 1.75 12.501L1.75 11.501C1.75079 10.7718 2.04075 10.0727 2.55627 9.55698C3.0718 9.04127 3.77081 8.75106 4.5 8.75H4.978C5.735 5.179 8.326 2.75 12 2.75C15.674 2.75 18.264 5.179 19.021 8.75H19.499C20.228 8.75106 20.9269 9.04113 21.4424 9.55662C21.9579 10.0721 22.2479 10.771 22.249 11.5V12.5C22.2482 13.2291 21.9582 13.9281 21.4427 14.4437C20.9271 14.9592 20.2281 15.2492 19.499 15.25H19.19C19.1514 16.4344 18.754 17.5792 18.0505 18.5327C17.3469 19.4863 16.3703 20.2037 15.25 20.59C15.2382 21.3193 14.9371 22.0141 14.4131 22.5215C13.889 23.0289 13.1848 23.3073 12.4555 23.2955C11.7262 23.2837 11.0314 22.9826 10.524 22.4586C10.0166 21.9345 9.7382 21.2303 9.75 20.501ZM11.25 20.501C11.25 20.7482 11.3233 20.9899 11.4607 21.1955C11.598 21.401 11.7932 21.5612 12.0216 21.6558C12.2501 21.7505 12.5014 21.7752 12.7439 21.727C12.9863 21.6788 13.2091 21.5597 13.3839 21.3849C13.5587 21.2101 13.6778 20.9873 13.726 20.7449C13.7742 20.5024 13.7495 20.2511 13.6548 20.0226C13.5602 19.7942 13.4 19.599 13.1945 19.4617C12.9889 19.3243 12.7472 19.251 12.5 19.251C12.1686 19.2513 11.8508 19.383 11.6164 19.6174C11.382 19.8518 11.2503 20.1696 11.25 20.501ZM19.25 13.751H19.499C19.8306 13.751 20.1487 13.6193 20.3832 13.3849C20.6178 13.1506 20.7497 12.8326 20.75 12.501V11.501C20.75 11.1694 20.6183 10.8513 20.3839 10.6168C20.1496 10.3822 19.8316 10.2503 19.5 10.25H19.25V13.751ZM3.25 11.501V12.501C3.25053 12.8323 3.38243 13.1498 3.61676 13.3839C3.8511 13.6181 4.16873 13.7497 4.5 13.75H4.75V10.25H4.5C4.16839 10.2503 3.85045 10.3822 3.61606 10.6168C3.38166 10.8513 3.25 11.1694 3.25 11.501Z" fill="#171717"/>
</g>
<defs>
<clipPath id="clip0_42_5293">
<rect width="24" height="24" fill="white" transform="translate(0 0.5)"/>
</clipPath>
</defs>
</svg>
