<svg width="24" height="25" viewBox="0 0 24 25" fill="none" xmlns="http://www.w3.org/2000/svg">
<path fill-rule="evenodd" clip-rule="evenodd" d="M1 12.5C1 11.9477 1.44772 11.5 2 11.5H5C5.55228 11.5 6 11.9477 6 12.5C6 13.0523 5.55228 13.5 5 13.5H2C1.44772 13.5 1 13.0523 1 12.5Z" fill="#171717"/>
<path fill-rule="evenodd" clip-rule="evenodd" d="M18 12.5C18 11.9477 18.4477 11.5 19 11.5H22C22.5523 11.5 23 11.9477 23 12.5C23 13.0523 22.5523 13.5 22 13.5H19C18.4477 13.5 18 13.0523 18 12.5Z" fill="#171717"/>
<path fill-rule="evenodd" clip-rule="evenodd" d="M12 1.5C12.5523 1.5 13 1.94772 13 2.5V5.5C13 6.05228 12.5523 6.5 12 6.5C11.4477 6.5 11 6.05228 11 5.5V2.5C11 1.94772 11.4477 1.5 12 1.5Z" fill="#171717"/>
<path fill-rule="evenodd" clip-rule="evenodd" d="M12 18.5C12.5523 18.5 13 18.9477 13 19.5V22.5C13 23.0523 12.5523 23.5 12 23.5C11.4477 23.5 11 23.0523 11 22.5V19.5C11 18.9477 11.4477 18.5 12 18.5Z" fill="#171717"/>
<path fill-rule="evenodd" clip-rule="evenodd" d="M12 6.5C8.68629 6.5 6 9.18629 6 12.5C6 15.8137 8.68629 18.5 12 18.5C15.3137 18.5 18 15.8137 18 12.5C18 9.18629 15.3137 6.5 12 6.5ZM4 12.5C4 8.08172 7.58172 4.5 12 4.5C16.4183 4.5 20 8.08172 20 12.5C20 16.9183 16.4183 20.5 12 20.5C7.58172 20.5 4 16.9183 4 12.5Z" fill="#171717"/>
</svg>
