<svg width="40" height="40" viewBox="0 0 40 40" fill="none" xmlns="http://www.w3.org/2000/svg">
<g clip-path="url(#clip0_42_5653)">
<path d="M39.2492 14.8356C38.9554 13.9612 38.1985 13.3237 37.2873 13.1844L26.6817 11.5638L21.9179 1.41563C21.5117 0.550625 20.6435 0 19.6898 0C18.7354 0 17.8679 0.550625 17.4617 1.41563L12.6973 11.5644L2.09166 13.185C1.18041 13.3244 0.423531 13.9613 0.130406 14.8363C-0.162719 15.7113 0.0585314 16.675 0.702906 17.3363L8.44791 25.2781L6.61353 36.5138C6.46228 37.4438 6.85666 38.3787 7.62603 38.9225C8.39478 39.4663 9.40978 39.5213 10.2367 39.065L19.6904 33.8369L29.1442 39.065C29.5173 39.2713 29.9279 39.3725 30.3367 39.3725C30.8342 39.3725 31.3317 39.2213 31.7548 38.9225C32.5242 38.3794 32.9179 37.4444 32.7667 36.5138L30.9323 25.2781L38.6779 17.3363C39.321 16.675 39.5423 15.7112 39.2492 14.8356Z" fill="#FFA200" fill-opacity="0.8"/>
</g>
<defs>
<clipPath id="clip0_42_5653">
<rect width="40" height="40" fill="white"/>
</clipPath>
</defs>
</svg>
