<svg width="24" height="25" viewBox="0 0 24 25" fill="none" xmlns="http://www.w3.org/2000/svg">
<path d="M21.5243 7.22623C21.5338 7.43722 21.5386 7.64919 21.5386 7.86209C21.5386 14.3562 16.5951 21.8442 7.557 21.8442C4.78158 21.8442 2.19816 21.0306 0.0234375 19.6362C0.408375 19.6818 0.799031 19.7051 1.19587 19.7051C3.49842 19.7051 5.61703 18.9195 7.29942 17.6012C5.14847 17.5617 3.33398 16.1408 2.70858 14.1885C3.00895 14.246 3.31645 14.2769 3.63342 14.2769C4.08108 14.2769 4.51542 14.2166 4.92797 14.1044C2.68008 13.6528 0.985781 11.6668 0.985781 9.28588C0.985781 9.26497 0.985781 9.24453 0.986297 9.22409C1.64878 9.59192 2.40633 9.81294 3.2123 9.83858C1.89352 8.95752 1.02619 7.45334 1.02619 5.74817C1.02619 4.84761 1.26806 4.00358 1.69148 3.27786C4.11525 6.25095 7.73559 8.20705 11.8199 8.41236C11.7362 8.05259 11.6925 7.67764 11.6925 7.29223C11.6925 4.57859 13.8928 2.37823 16.6065 2.37823C18.0208 2.37823 19.2973 2.97514 20.1936 3.92989C21.3133 3.70986 22.3645 3.30069 23.314 2.73748C22.9471 3.88522 22.1686 4.84803 21.1536 5.45633C22.1477 5.3375 23.0954 5.07331 23.9765 4.68266C23.3178 5.66788 22.4843 6.53328 21.5243 7.22623Z" fill="#171717"/>
</svg>
