<svg width="24" height="25" viewBox="0 0 24 25" fill="none" xmlns="http://www.w3.org/2000/svg">
<g clip-path="url(#clip0_42_5730)">
<path fill-rule="evenodd" clip-rule="evenodd" d="M9.58613 15.2145V8.48034C11.9768 9.60526 13.8283 10.6919 16.0181 11.8635C14.212 12.8652 11.9768 13.9891 9.58613 15.2145ZM22.9092 5.13112C22.4968 4.58781 21.794 4.16489 21.0457 4.02487C18.8463 3.60721 5.12518 3.60602 2.92698 4.02487C2.32693 4.13736 1.7926 4.40926 1.3336 4.83171C-0.600435 6.62679 0.00559941 16.2532 0.471777 17.8126C0.667809 18.4875 0.921228 18.9743 1.24038 19.2938C1.65157 19.7163 2.21456 20.0071 2.86123 20.1376C4.67214 20.5121 14.0016 20.7216 21.0074 20.1938C21.6529 20.0813 22.2243 19.7811 22.6749 19.3407C24.4631 17.5528 24.3412 7.38574 22.9092 5.13112Z" fill="#171717"/>
</g>
<defs>
<clipPath id="clip0_42_5730">
<rect width="24" height="24" fill="white" transform="translate(0 0.111206)"/>
</clipPath>
</defs>
</svg>
